<?xml version="1.0" encoding="UTF-8" standalone="no"?>
<!-- Created with Inkscape (http://www.inkscape.org/) -->

<svg
   xmlns:dc="http://purl.org/dc/elements/1.1/"
   xmlns:cc="http://creativecommons.org/ns#"
   xmlns:rdf="http://www.w3.org/1999/02/22-rdf-syntax-ns#"
   xmlns:svg="http://www.w3.org/2000/svg"
   xmlns="http://www.w3.org/2000/svg"
   xmlns:xlink="http://www.w3.org/1999/xlink"
   xmlns:sodipodi="http://sodipodi.sourceforge.net/DTD/sodipodi-0.dtd"
   xmlns:inkscape="http://www.inkscape.org/namespaces/inkscape"
   width="92.743874mm"
   height="18.448587mm"
   viewBox="0 0 328.62003 65.36901"
   id="svg4416"
   version="1.1"
   inkscape:version="0.91 r13725"
   sodipodi:docname="logo-header.svg"
   inkscape:export-filename="lecatalogue.png"
   inkscape:export-xdpi="299"
   inkscape:export-ydpi="299">
  <defs
     id="defs4418">
    <radialGradient
       inkscape:collect="always"
       xlink:href="#linearGradient5144"
       id="radialGradient4692"
       gradientUnits="userSpaceOnUse"
       gradientTransform="matrix(6.0727741e-4,0.07995102,-0.11625623,8.8303707e-4,557.88079,193.47312)"
       cx="-188.9353"
       cy="937.83844"
       fx="-188.9353"
       fy="937.83844"
       r="192.81543" />
    <linearGradient
       id="linearGradient5144"
       inkscape:collect="always">
      <stop
         id="stop5148"
         offset="0"
         style="stop-color:#003189;stop-opacity:1;" />
      <stop
         id="stop5146"
         offset="1"
         style="stop-color:#003189;stop-opacity:0;" />
    </linearGradient>
    <circle
       style="color:#000000;clip-rule:nonzero;display:inline;overflow:visible;visibility:visible;opacity:1;isolation:auto;mix-blend-mode:normal;color-interpolation:sRGB;color-interpolation-filters:linearRGB;solid-color:#000000;solid-opacity:1;fill:none;fill-opacity:1;fill-rule:evenodd;stroke:none;stroke-width:1.34631026;stroke-linecap:butt;stroke-linejoin:miter;stroke-miterlimit:4;stroke-dasharray:none;stroke-dashoffset:0;stroke-opacity:1;color-rendering:auto;image-rendering:auto;shape-rendering:auto;text-rendering:auto;enable-background:accumulate"
       id="path7384-2-2"
       cx="385.54233"
       cy="-1024.5504"
       r="141.36256"
       transform="matrix(-0.9977633,0.06684602,-0.06684602,-0.9977633,0,0)" />
  </defs>
  <sodipodi:namedview
     id="base"
     pagecolor="#ffffff"
     bordercolor="#666666"
     borderopacity="1.0"
     inkscape:pageopacity="0.0"
     inkscape:pageshadow="2"
     inkscape:zoom="1.4"
     inkscape:cx="-141.00918"
     inkscape:cy="87.007403"
     inkscape:document-units="px"
     inkscape:current-layer="layer1"
     showgrid="false"
     fit-margin-top="0"
     fit-margin-left="0"
     fit-margin-right="0"
     fit-margin-bottom="0"
     inkscape:window-width="1920"
     inkscape:window-height="1056"
     inkscape:window-x="0"
     inkscape:window-y="24"
     inkscape:window-maximized="1" />
  <metadata
     id="metadata4421">
    <rdf:RDF>
      <cc:Work
         rdf:about="">
        <dc:format>image/svg+xml</dc:format>
        <dc:type
           rdf:resource="http://purl.org/dc/dcmitype/StillImage" />
        <dc:title />
      </cc:Work>
    </rdf:RDF>
  </metadata>
  <g
     inkscape:label="Calque 1"
     inkscape:groupmode="layer"
     id="layer1"
     transform="translate(-410.17264,-139.6777)">
    <path
       style="color:#000000;clip-rule:nonzero;display:inline;overflow:visible;visibility:visible;opacity:1;isolation:auto;mix-blend-mode:normal;color-interpolation:sRGB;color-interpolation-filters:linearRGB;solid-color:#000000;solid-opacity:1;fill:none;fill-opacity:1;fill-rule:nonzero;stroke:#003189;stroke-width:2;stroke-linecap:butt;stroke-linejoin:miter;stroke-miterlimit:4;stroke-dasharray:none;stroke-dashoffset:0;stroke-opacity:1;color-rendering:auto;image-rendering:auto;shape-rendering:auto;text-rendering:auto;enable-background:accumulate"
       d="m 442.65956,200.39185 -6.605,-3.8131 -13.21002,-7.626 0,-30.5042 26.42003,-15.2521 13.21001,7.626 1.81429,-3.125"
       id="path4436-6-0"
       inkscape:connector-curvature="0"
       sodipodi:nodetypes="ccccccc" />
    <circle
       style="color:#000000;clip-rule:nonzero;display:inline;overflow:visible;visibility:visible;opacity:1;isolation:auto;mix-blend-mode:normal;color-interpolation:sRGB;color-interpolation-filters:linearRGB;solid-color:#000000;solid-opacity:1;fill:#e2011c;fill-opacity:1;fill-rule:nonzero;stroke:none;stroke-width:2;stroke-linecap:butt;stroke-linejoin:miter;stroke-miterlimit:4;stroke-dasharray:none;stroke-dashoffset:0;stroke-opacity:1;color-rendering:auto;image-rendering:auto;shape-rendering:auto;text-rendering:auto;enable-background:accumulate"
       id="path4536-64"
       cx="-197.00182"
       cy="462.44641"
       r="1.8412957"
       transform="matrix(0,-1,1,0,0,0)" />
    <circle
       style="color:#000000;clip-rule:nonzero;display:inline;overflow:visible;visibility:visible;opacity:1;isolation:auto;mix-blend-mode:normal;color-interpolation:sRGB;color-interpolation-filters:linearRGB;solid-color:#000000;solid-opacity:1;fill:#003189;fill-opacity:1;fill-rule:nonzero;stroke:none;stroke-width:2;stroke-linecap:butt;stroke-linejoin:miter;stroke-miterlimit:4;stroke-dasharray:none;stroke-dashoffset:0;stroke-opacity:1;color-rendering:auto;image-rendering:auto;shape-rendering:auto;text-rendering:auto;enable-background:accumulate"
       id="path4536-6-38"
       cx="-147.21242"
       cy="464.45084"
       r="1.8412957"
       transform="matrix(0,-1,1,0,0,0)" />
    <path
       style="fill:none;fill-rule:evenodd;stroke:#002793;stroke-width:2;stroke-linecap:butt;stroke-linejoin:miter;stroke-miterlimit:4;stroke-dasharray:none;stroke-opacity:1"
       d="m 418.08434,173.49946 4.91351,0"
       id="path4587-9-4-6"
       inkscape:connector-curvature="0"
       sodipodi:nodetypes="cc" />
    <circle
       style="color:#000000;clip-rule:nonzero;display:inline;overflow:visible;visibility:visible;opacity:1;isolation:auto;mix-blend-mode:normal;color-interpolation:sRGB;color-interpolation-filters:linearRGB;solid-color:#000000;solid-opacity:1;fill:#003189;fill-opacity:1;fill-rule:nonzero;stroke:none;stroke-width:2;stroke-linecap:butt;stroke-linejoin:miter;stroke-miterlimit:4;stroke-dasharray:none;stroke-dashoffset:0;stroke-opacity:1;color-rendering:auto;image-rendering:auto;shape-rendering:auto;text-rendering:auto;enable-background:accumulate"
       id="path4536-6-3-2"
       cx="-173.45854"
       cy="418.5285"
       r="1.8412957"
       transform="matrix(0,-1,1,0,0,0)" />
    <g
       style="font-style:normal;font-variant:normal;font-weight:normal;font-stretch:normal;font-size:37.23695755px;line-height:125%;font-family:sans-serif;-inkscape-font-specification:'Ubuntu, Light';text-align:start;letter-spacing:0px;word-spacing:0px;writing-mode:lr-tb;text-anchor:start;fill:#003189;fill-opacity:1;stroke:none;stroke-width:1px;stroke-linecap:butt;stroke-linejoin:miter;stroke-opacity:1"
       id="text4168">
      <path
         d="m 493.19388,188.95058 q -1.22882,-0.0372 -2.15974,-0.33513 -0.89369,-0.26066 -1.52671,-0.81922 -0.5958,-0.59579 -0.93093,-1.48947 -0.29789,-0.93093 -0.29789,-2.30869 l 0,-23.83166 2.4204,-0.44684 0,24.20402 q 0,0.89369 0.14895,1.45224 0.18618,0.52132 0.52131,0.85645 0.33514,0.2979 0.85645,0.44685 0.55856,0.14894 1.3033,0.26065 l -0.33514,2.0108 z"
         style="font-style:normal;font-variant:normal;font-weight:300;font-stretch:normal;font-size:37.23695755px;line-height:125%;font-family:Ubuntu;-inkscape-font-specification:'Ubuntu, Light';text-align:start;writing-mode:lr-tb;text-anchor:start;fill:#003189;fill-opacity:1"
         id="path4155" />
      <path
         d="m 496.68892,178.97108 q 0,-2.53212 0.7075,-4.39396 0.74474,-1.89909 1.89909,-3.16515 1.19158,-1.26605 2.68106,-1.86184 1.52672,-0.63303 3.1279,-0.63303 3.53752,0 5.62278,2.30869 2.12251,2.30869 2.12251,7.11226 0,0.29789 -0.0372,0.59579 0,0.29789 -0.0372,0.55855 l -13.51702,0 q 0.11171,3.53751 1.75014,5.4366 1.63843,1.89908 5.21317,1.89908 1.97356,0 3.12791,-0.37237 1.15434,-0.37237 1.67566,-0.63302 l 0.44684,2.08527 q -0.52131,0.29789 -1.97355,0.7075 -1.41501,0.4096 -3.35133,0.4096 -2.53211,0 -4.31949,-0.74473 -1.78737,-0.74474 -2.94172,-2.08527 -1.15434,-1.34053 -1.67566,-3.16515 -0.52132,-1.86184 -0.52132,-4.05882 z m 13.66597,-1.52672 q -0.0745,-3.01619 -1.41501,-4.69186 -1.34053,-1.67566 -3.79817,-1.67566 -1.30329,0 -2.34593,0.52132 -1.00539,0.52132 -1.78737,1.415 -0.74474,0.85645 -1.19158,2.0108 -0.40961,1.15434 -0.48408,2.4204 l 11.02214,0 z"
         style="font-style:normal;font-variant:normal;font-weight:300;font-stretch:normal;font-size:37.23695755px;line-height:125%;font-family:Ubuntu;-inkscape-font-specification:'Ubuntu, Light';text-align:start;writing-mode:lr-tb;text-anchor:start;fill:#003189;fill-opacity:1"
         id="path4157" />
      <path
         d="m 543.16894,168.88786 0,5.30918 q -1.3273,-0.90911 -2.67277,-1.34548 -1.3273,-0.43637 -2.76368,-0.43637 -2.72732,0 -4.25462,1.60003 -1.50911,1.58184 -1.50911,4.43643 0,2.85459 1.50911,4.45462 1.5273,1.58184 4.25462,1.58184 1.52729,0 2.89095,-0.45455 1.38184,-0.45456 2.5455,-1.34548 l 0,5.32736 q -1.5273,0.56364 -3.10914,0.83638 -1.56366,0.29091 -3.14551,0.29091 -5.50918,0 -8.61832,-2.81823 -3.10914,-2.83641 -3.10914,-7.87285 0,-5.03644 3.10914,-7.85467 3.10914,-2.83641 8.61832,-2.83641 1.60003,0 3.14551,0.29091 1.56366,0.27274 3.10914,0.83638 z"
         style="font-weight:bold;fill:#003189;fill-opacity:1"
         id="path4159" />
      <path
         d="m 557.95099,179.45167 q -2.03639,0 -3.07277,0.69092 -1.0182,0.69092 -1.0182,2.03639 0,1.23639 0.81819,1.94549 0.83638,0.69092 2.30913,0.69092 1.83639,0 3.09096,-1.30911 1.25456,-1.3273 1.25456,-3.30915 l 0,-0.74546 -3.38187,0 z m 9.94562,-2.45459 0,11.61837 -6.56375,0 0,-3.01823 q -1.30911,1.85457 -2.9455,2.70913 -1.63639,0.83638 -3.98188,0.83638 -3.16369,0 -5.14554,-1.83639 -1.96366,-1.85458 -1.96366,-4.80008 0,-3.58188 2.45458,-5.25463 2.47277,-1.67275 7.74558,-1.67275 l 3.83642,0 0,-0.5091 q 0,-1.54548 -1.2182,-2.25458 -1.2182,-0.72729 -3.80006,-0.72729 -2.09094,0 -3.89097,0.41819 -1.80003,0.41819 -3.34551,1.25457 l 0,-4.96372 q 2.09095,-0.5091 4.20007,-0.76365 2.10912,-0.27273 4.21825,-0.27273 5.50918,0 7.94558,2.18185 2.45459,2.16367 2.45459,7.05466 z"
         style="font-weight:bold;fill:#003189;fill-opacity:1"
         id="path4161" />
      <path
         d="m 581.09682,162.46958 0,5.78191 6.7092,0 0,4.65462 -6.7092,0 0,8.6365 q 0,1.4182 0.56364,1.9273 0.56365,0.49092 2.2364,0.49092 l 3.34551,0 0,4.65462 -5.58191,0 q -3.8546,0 -5.47281,-1.60003 -1.60003,-1.61821 -1.60003,-5.47281 l 0,-8.6365 -3.23641,0 0,-4.65462 3.23641,0 0,-5.78191 6.5092,0 z"
         style="font-weight:bold;fill:#003189;fill-opacity:1"
         id="path4163" />
      <path
         d="m 600.9335,179.45167 q -2.0364,0 -3.07278,0.69092 -1.0182,0.69092 -1.0182,2.03639 0,1.23639 0.8182,1.94549 0.83638,0.69092 2.30913,0.69092 1.83639,0 3.09095,-1.30911 1.25457,-1.3273 1.25457,-3.30915 l 0,-0.74546 -3.38187,0 z m 9.94561,-2.45459 0,11.61837 -6.56374,0 0,-3.01823 q -1.30911,1.85457 -2.9455,2.70913 -1.63639,0.83638 -3.98188,0.83638 -3.16369,0 -5.14554,-1.83639 -1.96367,-1.85458 -1.96367,-4.80008 0,-3.58188 2.45459,-5.25463 2.47276,-1.67275 7.74557,-1.67275 l 3.83643,0 0,-0.5091 q 0,-1.54548 -1.2182,-2.25458 -1.2182,-0.72729 -3.80006,-0.72729 -2.09094,0 -3.89097,0.41819 -1.80003,0.41819 -3.34551,1.25457 l 0,-4.96372 q 2.09094,-0.5091 4.20007,-0.76365 2.10912,-0.27273 4.21824,-0.27273 5.50918,0 7.94559,2.18185 2.45458,2.16367 2.45458,7.05466 z"
         style="font-weight:bold;fill:#003189;fill-opacity:1"
         id="path4165" />
      <path
         d="m 616.97011,160.32409 6.5092,0 0,28.29136 -6.5092,0 0,-28.29136 z"
         style="font-weight:bold;fill:#003189;fill-opacity:1"
         id="path4167" />
      <path
         d="m 639.46138,172.41519 q -2.16367,0 -3.30915,1.56366 -1.12729,1.54548 -1.12729,4.4728 0,2.92732 1.12729,4.49098 1.14548,1.54548 3.30915,1.54548 2.1273,0 3.25459,-1.54548 1.12729,-1.56366 1.12729,-4.49098 0,-2.92732 -1.12729,-4.4728 -1.12729,-1.56366 -3.25459,-1.56366 z m 0,-4.65462 q 5.25463,0 8.20013,2.83641 2.96368,2.83641 2.96368,7.85467 0,5.01826 -2.96368,7.85467 -2.9455,2.83641 -8.20013,2.83641 -5.27281,0 -8.25468,-2.83641 -2.96368,-2.83641 -2.96368,-7.85467 0,-5.01826 2.96368,-7.85467 2.98187,-2.83641 8.25468,-2.83641 z"
         style="font-weight:bold;fill:#003189;fill-opacity:1"
         id="path4169" />
      <path
         d="m 669.2255,185.16085 q -1.34548,1.78184 -2.96369,2.61822 -1.6182,0.83638 -3.74551,0.83638 -3.72733,0 -6.16374,-2.92732 -2.4364,-2.9455 -2.4364,-7.49103 0,-4.56371 2.4364,-7.47285 2.43641,-2.92732 6.16374,-2.92732 2.12731,0 3.74551,0.83638 1.61821,0.83638 2.96369,2.63641 l 0,-3.01823 6.54556,0 0,18.30938 q 0,4.90917 -3.10914,7.49103 -3.09096,2.60004 -8.98197,2.60004 -1.90912,0 -3.69096,-0.29091 -1.78185,-0.29092 -3.58188,-0.89093 l 0,-5.07281 q 1.70912,0.98184 3.34551,1.45457 1.63639,0.49092 3.29096,0.49092 3.20005,0 4.69098,-1.40002 1.49094,-1.40002 1.49094,-4.38189 l 0,-1.40002 z m -4.29098,-12.67293 q -2.01821,0 -3.14551,1.49093 -1.12729,1.49093 -1.12729,4.21825 0,2.80004 1.09093,4.25461 1.09093,1.43639 3.18187,1.43639 2.0364,0 3.16369,-1.49093 1.12729,-1.49094 1.12729,-4.20007 0,-2.72732 -1.12729,-4.21825 -1.12729,-1.49093 -3.16369,-1.49093 z"
         style="font-weight:bold;fill:#003189;fill-opacity:1"
         id="path4171" />
      <path
         d="m 681.84388,180.68805 0,-12.43656 6.54555,0 0,2.03639 q 0,1.65457 -0.0182,4.16371 -0.0182,2.49094 -0.0182,3.32732 0,2.45459 0.12727,3.54551 0.12728,1.07275 0.43638,1.56366 0.4,0.63638 1.03638,0.98184 0.65455,0.34546 1.49093,0.34546 2.03639,0 3.20005,-1.56366 1.16365,-1.56366 1.16365,-4.34553 l 0,-10.0547 6.5092,0 0,20.36396 -6.5092,0 0,-2.9455 q -1.47275,1.78184 -3.12732,2.6364 -1.63639,0.83638 -3.61824,0.83638 -3.52733,0 -5.3819,-2.16367 -1.83639,-2.16367 -1.83639,-6.29101 z"
         style="font-weight:bold;fill:#003189;fill-opacity:1"
         id="path4173" />
      <path
         d="m 728.93554,178.37892 0,1.85458 -15.21842,0 q 0.23636,2.29094 1.65457,3.43641 1.4182,1.14548 3.9637,1.14548 2.05458,0 4.20006,-0.60001 2.16368,-0.61819 4.43644,-1.85458 l 0,5.01826 q -2.30913,0.87275 -4.61826,1.30912 -2.30912,0.45455 -4.61825,0.45455 -5.52736,0 -8.60014,-2.80005 -3.05459,-2.81822 -3.05459,-7.89103 0,-4.9819 3.00004,-7.83649 3.01823,-2.85459 8.29105,-2.85459 4.80007,0 7.67285,2.89096 2.89095,2.89095 2.89095,7.72739 z m -6.69101,-2.16367 q 0,-1.85457 -1.09093,-2.98187 -1.07275,-1.14547 -2.81823,-1.14547 -1.89094,0 -3.07277,1.07275 -1.18184,1.05456 -1.47276,3.05459 l 8.45469,0 z"
         style="font-weight:bold;fill:#003189;fill-opacity:1"
         id="path4175" />
    </g>
    <path
       d="m 449.35629,198.75393 -21.47955,-12.40123 0,-24.80245 21.47955,-12.40122 21.47955,12.40122 0,24.80245 z"
       inkscape:randomized="0"
       inkscape:rounded="0"
       inkscape:flatsided="true"
       sodipodi:arg2="2.0943951"
       sodipodi:arg1="1.5707963"
       sodipodi:r2="21.479551"
       sodipodi:r1="24.802448"
       sodipodi:cy="173.95148"
       sodipodi:cx="449.35629"
       sodipodi:sides="6"
       id="path3522-3"
       style="color:#000000;font-style:normal;font-variant:normal;font-weight:300;font-stretch:normal;font-size:medium;line-height:125%;font-family:Ubuntu;-inkscape-font-specification:'Ubuntu, Light';text-align:start;letter-spacing:0px;word-spacing:0px;writing-mode:lr-tb;text-anchor:start;clip-rule:nonzero;display:inline;overflow:visible;visibility:visible;opacity:1;isolation:auto;mix-blend-mode:normal;color-interpolation:sRGB;color-interpolation-filters:linearRGB;solid-color:#000000;solid-opacity:1;fill:#ffffff;fill-opacity:0.67058824;fill-rule:evenodd;stroke:none;stroke-width:4;stroke-linecap:butt;stroke-linejoin:miter;stroke-miterlimit:4;stroke-dasharray:none;stroke-dashoffset:0;stroke-opacity:1;color-rendering:auto;image-rendering:auto;shape-rendering:auto;text-rendering:auto;enable-background:accumulate"
       sodipodi:type="star" />
    <path
       id="path4498"
       d="m 442.06065,176.72823 c -0.0491,0 -0.0962,0.0134 -0.14503,0.0144 0.004,0.0719 0.0135,0.1305 0.0135,0.21136 0,0.18742 -0.0104,0.35083 -0.0317,0.49048 -0.0211,0.13964 -0.0529,0.25543 -0.0952,0.34731 -0.0417,0.0919 -0.0943,0.16101 -0.15807,0.20695 -0.0638,0.046 -0.13879,0.0687 -0.22464,0.0687 -0.0852,0 -0.1597,-0.0227 -0.22347,-0.0687 -0.0638,-0.0459 -0.11667,-0.11506 -0.15899,-0.20695 -0.0417,-0.0919 -0.073,-0.20767 -0.0938,-0.34731 -0.0209,-0.13965 -0.0317,-0.30306 -0.0317,-0.49048 0,-0.0438 0.006,-0.0734 0.007,-0.11452 -0.0958,0.0148 -0.19407,0.0104 -0.28936,0.0284 -0.0269,0.005 -0.053,0.0156 -0.0798,0.0209 0,0.0241 -0.006,0.0404 -0.006,0.0652 0,0.23093 0.0185,0.43379 0.0554,0.6085 0.0369,0.1747 0.0924,0.32124 0.1662,0.43973 0.0737,0.11848 0.16508,0.20729 0.27422,0.26653 0.10913,0.0593 0.23565,0.0889 0.38014,0.0889 0.14449,0 0.27148,-0.0297 0.38059,-0.0889 0.10912,-0.0592 0.20048,-0.14805 0.27422,-0.26653 0.0744,-0.11849 0.13019,-0.26503 0.16737,-0.43973 0.0372,-0.17471 0.0559,-0.37757 0.0559,-0.6085 0,-0.0777 -0.0148,-0.13331 -0.0189,-0.20461 -0.0734,-0.002 -0.14424,-0.0212 -0.21789,-0.0212 z m 22.007,0.0277 c -0.12189,0.005 -0.24164,0.0246 -0.36266,0.0356 l 0,1.20534 -0.56962,0 0,0.30821 1.49445,0 0,-0.30821 -0.56217,0 0,-1.24096 z m -22.47698,0.0182 c -0.11986,0.008 -0.23901,0.0213 -0.35802,0.0349 -0.0286,0.0412 -0.0542,0.0835 -0.0542,0.13595 0,0.0701 0.0223,0.12795 0.067,0.17388 0.0459,0.0459 0.1029,0.0691 0.17062,0.0691 0.0689,0 0.12674,-0.0234 0.17389,-0.0705 0.0484,-0.0472 0.0726,-0.10478 0.0726,-0.17249 0,-0.066 -0.0243,-0.12273 -0.0719,-0.17086 z m 23.54407,0.0305 c -0.002,0.0534 -0.0133,0.0927 -0.0133,0.14944 0,0.23093 0.0183,0.43377 0.0552,0.6085 0.0369,0.1747 0.0922,0.32124 0.16598,0.43973 0.0738,0.11848 0.1651,0.20729 0.27422,0.26653 0.10911,0.0593 0.23611,0.0887 0.38059,0.0887 0.14447,0 0.27102,-0.0294 0.38014,-0.0887 0.10914,-0.0592 0.20069,-0.14805 0.27444,-0.26653 0.0744,-0.11849 0.13021,-0.26503 0.16737,-0.43973 0.0251,-0.11823 0.0294,-0.26778 0.0375,-0.4118 -0.11828,-0.0357 -0.23779,-0.0622 -0.35663,-0.094 -0.004,0.14034 -0.008,0.27735 -0.0249,0.38781 -0.0212,0.13964 -0.0531,0.25539 -0.0954,0.34731 -0.0417,0.0919 -0.0943,0.16101 -0.15806,0.20695 -0.0638,0.0459 -0.13856,0.0687 -0.2244,0.0687 -0.0853,0 -0.15994,-0.0227 -0.2237,-0.0687 -0.0638,-0.0459 -0.1167,-0.11506 -0.15899,-0.20695 -0.0417,-0.0919 -0.0729,-0.20767 -0.0938,-0.34731 -0.0209,-0.13965 -0.0312,-0.30308 -0.0312,-0.49048 0,-0.0437 0.006,-0.073 0.007,-0.11406 -0.11973,-0.0185 -0.24171,-0.0223 -0.3622,-0.0354 z m 0.65202,0.0643 c -0.009,0.0258 -0.0305,0.0467 -0.0305,0.0761 0,0.0701 0.0221,0.12795 0.0668,0.17388 0.0459,0.0459 0.10293,0.0691 0.17064,0.0691 0.0689,0 0.12674,-0.0234 0.17389,-0.0705 0.0375,-0.0365 0.0476,-0.085 0.0561,-0.13385 -0.14608,-0.0349 -0.28986,-0.087 -0.43693,-0.11476 z m -22.19091,0.0263 0,1.10153 -0.56962,0 0,0.30844 1.49447,0 0,-0.30844 -0.56217,0 0,-1.00608 c -0.12128,-0.0293 -0.24072,-0.0709 -0.36268,-0.0954 z m -3.53922,0.12361 c -0.12423,0.0314 -0.24861,0.0622 -0.37223,0.098 -0.005,0.1147 -0.007,0.23441 -0.0212,0.32775 -0.0212,0.13964 -0.0529,0.2554 -0.0952,0.34731 -0.0417,0.0919 -0.0947,0.16078 -0.15853,0.20671 -0.0638,0.0459 -0.13833,0.0689 -0.22417,0.0689 -0.0852,0 -0.15995,-0.023 -0.2237,-0.0689 -0.0638,-0.0459 -0.11692,-0.11485 -0.15923,-0.20671 -0.0417,-0.0919 -0.0729,-0.20767 -0.0938,-0.34731 l 0,-0.0103 c -0.11432,0.0423 -0.22864,0.0848 -0.34265,0.12944 0.0369,0.17401 0.0917,0.32042 0.16528,0.43856 0.0738,0.11848 0.16509,0.20727 0.27421,0.26653 0.10914,0.0593 0.23588,0.0889 0.38036,0.0889 0.14447,0 0.27126,-0.0297 0.38038,-0.0889 0.10911,-0.0593 0.20068,-0.14805 0.27445,-0.26653 0.0744,-0.11849 0.12996,-0.26503 0.16713,-0.43973 0.0332,-0.15616 0.0465,-0.34272 0.0501,-0.54378 l -0.001,0 0,0 z m 21.77678,0.13548 c -0.10316,0.0313 -0.20844,0.0482 -0.31123,0.0822 -0.0173,0.006 -0.0342,0.0136 -0.0514,0.0193 l 0,0.74095 -0.56962,0 0,0.30844 1.49446,0 0,-0.30844 -0.56217,0 0,-0.84244 z m -16.00331,0.43739 0,0.40505 -0.56916,0 0,0.30844 1.494,0 0,-0.30844 -0.56217,0 0,-0.26794 c -0.12032,-0.0498 -0.24205,-0.0894 -0.36267,-0.13711 z m 22.3436,0.0198 0,0.38525 -0.56938,0 0,0.30844 1.49399,0 0,-0.30844 -0.5617,0 0,-0.24815 c -0.12031,-0.0501 -0.24234,-0.0891 -0.36291,-0.1371 z m -30.86833,0.38479 c -0.23524,0.1026 -0.47064,0.20327 -0.70556,0.3082 l 1.21791,0 0,-0.3082 -0.51235,0 z m 22.29357,0 c -0.23592,0.10286 -0.47213,0.20368 -0.70766,0.3089 l 1.26983,0 0,-0.30844 -0.56217,0 0,0 z m -12.10375,0.29679 0,0.0114 0.0263,0 c -0.009,-0.004 -0.0175,-0.008 -0.0263,-0.0114 z m -15.01306,1.89764 c -0.14449,0 -0.27126,0.0294 -0.38038,0.0887 -0.10911,0.0592 -0.20068,0.14806 -0.27444,0.26654 -0.0737,0.11848 -0.12885,0.2654 -0.16574,0.44043 -0.0369,0.17499 -0.0554,0.37813 -0.0554,0.60965 0,0.23094 0.0185,0.43401 0.0554,0.60872 0.0369,0.1747 0.092,0.32124 0.16574,0.43973 0.0738,0.11847 0.16533,0.20729 0.27444,0.26654 0.10912,0.0592 0.23589,0.0887 0.38038,0.0887 0.14449,0 0.27147,-0.0294 0.38059,-0.0887 0.10913,-0.0593 0.20047,-0.14807 0.27422,-0.26654 0.0744,-0.11849 0.12996,-0.26503 0.16713,-0.43973 0.0372,-0.17471 0.0561,-0.37778 0.0561,-0.60872 0,-0.23152 -0.0189,-0.43466 -0.0561,-0.60965 -0.0372,-0.17503 -0.0927,-0.32195 -0.16713,-0.44043 -0.0737,-0.11848 -0.16509,-0.20729 -0.27422,-0.26654 -0.10912,-0.0593 -0.2361,-0.0887 -0.38059,-0.0887 z m 4.46894,0 c -0.14448,0 -0.27147,0.0294 -0.38059,0.0887 -0.10911,0.0592 -0.20048,0.14806 -0.27422,0.26654 -0.0738,0.11848 -0.12931,0.2654 -0.1662,0.44043 -0.0369,0.17499 -0.055,0.37813 -0.055,0.60965 0,0.23094 0.0181,0.43401 0.055,0.60872 0.0369,0.1747 0.0924,0.32124 0.1662,0.43973 0.0737,0.11847 0.16511,0.20729 0.27422,0.26654 0.10912,0.0592 0.23609,0.0887 0.38059,0.0887 0.14448,0 0.27103,-0.0294 0.38014,-0.0887 0.10914,-0.0593 0.20047,-0.14807 0.27422,-0.26654 0.0744,-0.11849 0.13019,-0.26503 0.16737,-0.43973 0.0372,-0.17471 0.0559,-0.37778 0.0559,-0.60872 0,-0.23152 -0.0187,-0.43466 -0.0559,-0.60965 -0.0372,-0.17503 -0.093,-0.32195 -0.16737,-0.44043 -0.0738,-0.11848 -0.16508,-0.20729 -0.27422,-0.26654 -0.10911,-0.0593 -0.23566,-0.0887 -0.38014,-0.0887 z m 4.46849,0 c -0.14447,0 -0.27125,0.0294 -0.38036,0.0887 -0.10913,0.0592 -0.20046,0.14806 -0.27422,0.26654 -0.0737,0.11848 -0.12908,0.2654 -0.16597,0.44043 -0.0369,0.17499 -0.0554,0.37813 -0.0554,0.60965 0,0.23094 0.0185,0.43401 0.0554,0.60872 0.0369,0.1747 0.0922,0.32124 0.16597,0.43973 0.0738,0.11847 0.16509,0.20729 0.27422,0.26654 0.10911,0.0592 0.23589,0.0887 0.38036,0.0887 0.14449,0 0.27124,-0.0294 0.38037,-0.0887 0.10911,-0.0593 0.20071,-0.14807 0.27446,-0.26654 0.0744,-0.11849 0.13018,-0.26503 0.16737,-0.43973 0.0372,-0.17471 0.0556,-0.37778 0.0556,-0.60872 0,-0.23152 -0.0185,-0.43466 -0.0556,-0.60965 -0.0372,-0.17503 -0.093,-0.32195 -0.16737,-0.44043 -0.0738,-0.11848 -0.16535,-0.20729 -0.27446,-0.26654 -0.10913,-0.0593 -0.23588,-0.0887 -0.38037,-0.0887 z m 2.23449,0 c -0.14449,0 -0.27149,0.0294 -0.38061,0.0887 -0.10911,0.0592 -0.20048,0.14806 -0.27422,0.26654 -0.0737,0.11848 -0.12908,0.2654 -0.16596,0.44043 -0.0369,0.17499 -0.0554,0.37813 -0.0554,0.60965 0,0.23094 0.0185,0.43401 0.0554,0.60872 0.0369,0.1747 0.0922,0.32124 0.16596,0.43973 0.0737,0.11847 0.16511,0.20729 0.27422,0.26654 0.10912,0.0592 0.23612,0.0887 0.38061,0.0887 0.14449,0 0.27101,-0.0294 0.38013,-0.0887 0.10912,-0.0593 0.20071,-0.14807 0.27445,-0.26654 0.0744,-0.11849 0.13018,-0.26503 0.16737,-0.43973 0.0372,-0.17471 0.0556,-0.37778 0.0556,-0.60872 0,-0.23152 -0.0184,-0.43466 -0.0556,-0.60965 -0.0372,-0.17503 -0.093,-0.32195 -0.16737,-0.44043 -0.0737,-0.11848 -0.16533,-0.20729 -0.27445,-0.26654 -0.10912,-0.0593 -0.23564,-0.0887 -0.38013,-0.0887 z m 4.46849,0 c -0.14449,0 -0.27102,0.0294 -0.38014,0.0887 -0.10911,0.0592 -0.20095,0.14806 -0.27469,0.26654 -0.0738,0.11848 -0.12885,0.2654 -0.16573,0.44043 -0.0369,0.17499 -0.0554,0.37813 -0.0554,0.60965 0,0.23094 0.0185,0.43401 0.0554,0.60872 0.0369,0.1747 0.092,0.32124 0.16573,0.43973 0.0737,0.11847 0.16558,0.20729 0.27469,0.26654 0.10912,0.0592 0.23565,0.0887 0.38014,0.0887 0.14447,0 0.27145,-0.0294 0.38059,-0.0887 0.10911,-0.0593 0.20045,-0.14807 0.27422,-0.26654 0.0743,-0.11849 0.13019,-0.26503 0.16737,-0.43973 0.0372,-0.17471 0.0556,-0.37778 0.0556,-0.60872 0,-0.23152 -0.0185,-0.43466 -0.0556,-0.60965 -0.0372,-0.17503 -0.093,-0.32195 -0.16737,-0.44043 -0.0738,-0.11848 -0.16511,-0.20729 -0.27422,-0.26654 -0.10914,-0.0593 -0.23612,-0.0887 -0.38059,-0.0887 z m 2.23424,0 c -0.14448,0 -0.27102,0.0294 -0.38014,0.0887 -0.1091,0.0592 -0.20069,0.14806 -0.27444,0.26654 -0.0737,0.11848 -0.1291,0.2654 -0.16598,0.44043 -0.0369,0.17499 -0.0554,0.37813 -0.0554,0.60965 0,0.23094 0.0185,0.43401 0.0554,0.60872 0.0369,0.1747 0.0922,0.32124 0.16598,0.43973 0.0738,0.11847 0.16534,0.20729 0.27444,0.26654 0.10912,0.0592 0.23566,0.0887 0.38014,0.0887 0.14448,0 0.27149,-0.0294 0.3806,-0.0887 0.10912,-0.0593 0.20046,-0.14807 0.27422,-0.26654 0.0743,-0.11849 0.13017,-0.26503 0.16737,-0.43973 0.0372,-0.17471 0.0556,-0.37778 0.0556,-0.60872 0,-0.23152 -0.0185,-0.43466 -0.0556,-0.60965 -0.0372,-0.17503 -0.093,-0.32195 -0.16737,-0.44043 -0.0738,-0.11848 -0.1651,-0.20729 -0.27422,-0.26654 -0.10911,-0.0593 -0.23612,-0.0887 -0.3806,-0.0887 z m 4.46872,0 c -0.14446,0 -0.271,0.0294 -0.38014,0.0887 -0.10911,0.0592 -0.20092,0.14806 -0.27467,0.26654 -0.0737,0.11848 -0.12885,0.2654 -0.16575,0.44043 -0.0369,0.17499 -0.0554,0.37813 -0.0554,0.60965 0,0.23094 0.0185,0.43401 0.0554,0.60872 0.0369,0.1747 0.092,0.32124 0.16575,0.43973 0.0738,0.11847 0.16556,0.20729 0.27467,0.26654 0.10915,0.0592 0.23568,0.0887 0.38014,0.0887 0.14449,0 0.27146,-0.0294 0.3806,-0.0887 0.10912,-0.0593 0.20047,-0.14807 0.27421,-0.26654 0.0744,-0.11849 0.1302,-0.26503 0.16737,-0.43973 0.0372,-0.17471 0.0556,-0.37778 0.0556,-0.60872 0,-0.23152 -0.0185,-0.43466 -0.0556,-0.60965 -0.0372,-0.17503 -0.093,-0.32195 -0.16737,-0.44043 -0.0737,-0.11848 -0.16509,-0.20729 -0.27421,-0.26654 -0.10914,-0.0593 -0.23611,-0.0887 -0.3806,-0.0887 z m 4.46896,0 c -0.14449,0 -0.27149,0.0294 -0.38061,0.0887 -0.1091,0.0592 -0.20045,0.14806 -0.27421,0.26654 -0.0737,0.11848 -0.12931,0.2654 -0.16621,0.44043 -0.0369,0.17499 -0.0549,0.37813 -0.0549,0.60965 0,0.23094 0.0181,0.43401 0.0549,0.60872 0.0369,0.1747 0.0925,0.32124 0.16621,0.43973 0.0738,0.11847 0.16511,0.20729 0.27421,0.26654 0.10912,0.0592 0.23612,0.0887 0.38061,0.0887 0.14447,0 0.27103,-0.0294 0.38012,-0.0887 0.10914,-0.0593 0.20048,-0.14807 0.27422,-0.26654 0.0744,-0.11849 0.1302,-0.26503 0.16737,-0.43973 0.0372,-0.17471 0.0556,-0.37778 0.0556,-0.60872 0,-0.23152 -0.0185,-0.43466 -0.0556,-0.60965 -0.0372,-0.17503 -0.093,-0.32195 -0.16737,-0.44043 -0.0737,-0.11848 -0.16509,-0.20729 -0.27422,-0.26654 -0.1091,-0.0593 -0.23565,-0.0887 -0.38012,-0.0887 z m 2.23424,0 c -0.14449,0 -0.27149,0.0294 -0.3806,0.0887 -0.10913,0.0592 -0.20049,0.14806 -0.27421,0.26654 -0.0738,0.11848 -0.12886,0.2654 -0.16575,0.44043 -0.0369,0.17499 -0.0554,0.37813 -0.0554,0.60965 0,0.23094 0.0185,0.43401 0.0554,0.60872 0.0369,0.1747 0.0919,0.32124 0.16575,0.43973 0.0737,0.11847 0.16508,0.20729 0.27421,0.26654 0.10911,0.0592 0.23611,0.0887 0.3806,0.0887 0.14448,0 0.27127,-0.0294 0.38037,-0.0887 0.10913,-0.0593 0.20069,-0.14807 0.27444,-0.26654 0.0744,-0.11849 0.12974,-0.26503 0.16691,-0.43973 0.0372,-0.17471 0.0561,-0.37778 0.0561,-0.60872 0,-0.23152 -0.0189,-0.43466 -0.0561,-0.60965 -0.0372,-0.17503 -0.0925,-0.32195 -0.16691,-0.44043 -0.0738,-0.11848 -0.16531,-0.20729 -0.27444,-0.26654 -0.1091,-0.0593 -0.23589,-0.0887 -0.38037,-0.0887 z m 4.46872,0 c -0.14449,0 -0.27148,0.0294 -0.38059,0.0887 -0.10912,0.0592 -0.20047,0.14806 -0.27422,0.26654 -0.0737,0.11848 -0.12912,0.2654 -0.16598,0.44043 -0.0369,0.17499 -0.0552,0.37813 -0.0552,0.60965 0,0.23094 0.0183,0.43401 0.0552,0.60872 0.0369,0.1747 0.0922,0.32124 0.16598,0.43973 0.0738,0.11847 0.1651,0.20729 0.27422,0.26654 0.10911,0.0592 0.2361,0.0887 0.38059,0.0887 0.14449,0 0.27102,-0.0294 0.38014,-0.0887 0.10911,-0.0593 0.2007,-0.14807 0.27444,-0.26654 0.0744,-0.11849 0.13018,-0.26503 0.16737,-0.43973 0.0372,-0.17471 0.0556,-0.37778 0.0556,-0.60872 0,-0.23152 -0.0185,-0.43466 -0.0556,-0.60965 -0.0372,-0.17503 -0.093,-0.32195 -0.16737,-0.44043 -0.0737,-0.11848 -0.16533,-0.20729 -0.27444,-0.26654 -0.10912,-0.0593 -0.23565,-0.0887 -0.38014,-0.0887 z m 2.23424,0 c -0.14448,0 -0.27146,0.0294 -0.38059,0.0887 -0.10911,0.0592 -0.20045,0.14806 -0.27422,0.26654 -0.0737,0.11848 -0.12887,0.2654 -0.16574,0.44043 -0.0369,0.17499 -0.0554,0.37813 -0.0554,0.60965 0,0.23094 0.0185,0.43401 0.0554,0.60872 0.0369,0.1747 0.092,0.32124 0.16574,0.43973 0.0738,0.11847 0.16511,0.20729 0.27422,0.26654 0.10913,0.0592 0.23611,0.0887 0.38059,0.0887 0.14449,0 0.27102,-0.0294 0.38014,-0.0887 0.10913,-0.0593 0.20095,-0.14807 0.27469,-0.26654 0.0744,-0.11849 0.12996,-0.26503 0.16713,-0.43973 0.0372,-0.17471 0.0559,-0.37778 0.0559,-0.60872 0,-0.23152 -0.0187,-0.43466 -0.0559,-0.60965 -0.0372,-0.17503 -0.0928,-0.32195 -0.16713,-0.44043 -0.0737,-0.11848 -0.16556,-0.20729 -0.27469,-0.26654 -0.10912,-0.0593 -0.23565,-0.0887 -0.38014,-0.0887 z m -40.27971,0.0489 -0.0752,0.0165 0,0.33125 0.0787,-0.0177 0,2.06944 -0.0787,0 0,0.3082 1.00376,0 0,-0.3082 -0.5624,0 0,-2.39953 -0.36617,0 z m 2.23424,0 -0.60918,0.13432 0,0.33335 0.61268,-0.13758 0,2.06944 -0.56916,0 0,0.3082 1.49423,0 0,-0.3082 -0.56241,0 0,-2.39953 -0.36616,0 z m 4.46896,0 -0.60966,0.13432 0,0.33335 0.61315,-0.13758 0,2.06944 -0.56962,0 0,0.3082 1.49446,0 0,-0.3082 -0.56217,0 0,-2.39953 -0.36616,0 z m 4.46849,0 -0.60943,0.13432 0,0.33335 0.61315,-0.13758 0,2.06944 -0.56962,0 0,0.3082 1.49423,0 0,-0.3082 -0.56193,0 0,-2.39953 -0.3664,0 z m 6.70296,0 -0.60942,0.13432 0,0.33335 0.61292,-0.13758 0,2.06944 -0.56916,0 0,0.3082 1.494,0 0,-0.3082 -0.56217,0 0,-2.39953 -0.36617,0 z m 6.70297,0 -0.60919,0.13432 0,0.33335 0.61268,-0.13758 0,2.06944 -0.56916,0 0,0.3082 1.49423,0 0,-0.3082 -0.56239,0 0,-2.39953 -0.36617,0 z m 4.46895,0 -0.60965,0.13432 0,0.33335 0.61314,-0.13758 0,2.06944 -0.56962,0 0,0.3082 1.49447,0 0,-0.3082 -0.56217,0 0,-2.39953 -0.36617,0 z m 6.70298,0 -0.60967,0.13432 0,0.33335 0.61316,-0.13758 0,2.06944 -0.56962,0 0,0.3082 1.49445,0 0,-0.3082 -0.56217,0 0,-2.39953 -0.36615,0 z m 6.70272,0 -0.60941,0.13432 0,0.33335 0.61314,-0.13758 0,2.06944 -0.56939,0 0,0.3082 0.99724,0 0,-0.3082 -0.065,0 0,-2.39953 -0.36663,0 z m -37.92209,0.24117 c 0.0858,0 0.16063,0.0232 0.2244,0.0691 0.0638,0.0459 0.11681,0.11456 0.15852,0.20648 0.0423,0.0918 0.0738,0.20783 0.095,0.34776 0.0212,0.13996 0.0319,0.30388 0.0319,0.49188 0,0.1874 -0.0107,0.35106 -0.0319,0.49071 -0.0212,0.13964 -0.0526,0.25541 -0.095,0.34731 -0.0417,0.0919 -0.0947,0.16101 -0.15852,0.20694 -0.0638,0.046 -0.13855,0.0687 -0.2244,0.0687 -0.0852,0 -0.1597,-0.0227 -0.22347,-0.0687 -0.0638,-0.0459 -0.1169,-0.11507 -0.15923,-0.20694 -0.0417,-0.0919 -0.0729,-0.20767 -0.0938,-0.34731 -0.0209,-0.13965 -0.0312,-0.30331 -0.0312,-0.49071 0,-0.188 0.0103,-0.35192 0.0312,-0.49188 0.0209,-0.13993 0.0521,-0.25591 0.0938,-0.34776 0.0423,-0.0919 0.0954,-0.16055 0.15923,-0.20648 0.0638,-0.046 0.13823,-0.0691 0.22347,-0.0691 z m 4.46894,0 c 0.0858,0 0.16041,0.0232 0.22418,0.0691 0.0638,0.0459 0.11658,0.11456 0.15829,0.20648 0.0423,0.0918 0.0743,0.20783 0.0954,0.34776 0.0212,0.13996 0.0314,0.30388 0.0314,0.49188 0,0.1874 -0.0101,0.35106 -0.0314,0.49071 -0.0211,0.13964 -0.0531,0.25541 -0.0954,0.34731 -0.0417,0.0919 -0.0945,0.16101 -0.15829,0.20694 -0.0638,0.046 -0.13835,0.0687 -0.22418,0.0687 -0.0853,0 -0.15992,-0.0227 -0.22369,-0.0687 -0.0638,-0.0459 -0.11692,-0.11507 -0.15922,-0.20694 -0.0417,-0.0919 -0.073,-0.20767 -0.0938,-0.34731 -0.0209,-0.13965 -0.0312,-0.30331 -0.0312,-0.49071 0,-0.188 0.0102,-0.35192 0.0312,-0.49188 0.0208,-0.13993 0.0521,-0.25591 0.0938,-0.34776 0.0423,-0.0919 0.0954,-0.16055 0.15922,-0.20648 0.0638,-0.046 0.13844,-0.0691 0.22369,-0.0691 z m 4.46849,0 c 0.0858,0 0.16087,0.0232 0.22464,0.0691 0.0638,0.0459 0.11635,0.11456 0.15807,0.20648 0.0423,0.0918 0.0741,0.20783 0.0952,0.34776 0.0212,0.13996 0.0317,0.30388 0.0317,0.49188 0,0.1874 -0.0105,0.35106 -0.0317,0.49071 -0.0211,0.13964 -0.0529,0.25541 -0.0952,0.34731 -0.0417,0.0919 -0.0943,0.16101 -0.15807,0.20694 -0.0638,0.046 -0.13879,0.0687 -0.22464,0.0687 -0.0852,0 -0.15969,-0.0227 -0.22347,-0.0687 -0.0638,-0.0459 -0.11668,-0.11507 -0.15899,-0.20694 -0.0417,-0.0919 -0.073,-0.20767 -0.0938,-0.34731 -0.0209,-0.13965 -0.0317,-0.30331 -0.0317,-0.49071 0,-0.188 0.0107,-0.35192 0.0317,-0.49188 0.0208,-0.13993 0.0521,-0.25591 0.0938,-0.34776 0.0423,-0.0919 0.0952,-0.16055 0.15899,-0.20648 0.0638,-0.046 0.13825,-0.0691 0.22347,-0.0691 z m 2.23449,0 c 0.0858,0 0.16061,0.0232 0.2244,0.0691 0.0638,0.0459 0.11635,0.11456 0.15806,0.20648 0.0423,0.0918 0.074,0.20783 0.0952,0.34776 0.0212,0.13996 0.0317,0.30388 0.0317,0.49188 0,0.1874 -0.0105,0.35106 -0.0317,0.49071 -0.0212,0.13964 -0.0529,0.25541 -0.0952,0.34731 -0.0417,0.0919 -0.0943,0.16101 -0.15806,0.20694 -0.0638,0.046 -0.13855,0.0687 -0.2244,0.0687 -0.0852,0 -0.15994,-0.0227 -0.22371,-0.0687 -0.0638,-0.0459 -0.11667,-0.11507 -0.15899,-0.20694 -0.0417,-0.0919 -0.073,-0.20767 -0.0938,-0.34731 -0.0209,-0.13965 -0.0312,-0.30331 -0.0312,-0.49071 0,-0.188 0.0103,-0.35192 0.0312,-0.49188 0.0208,-0.13993 0.0521,-0.25591 0.0938,-0.34776 0.0423,-0.0919 0.0952,-0.16055 0.15899,-0.20648 0.0638,-0.046 0.13847,-0.0691 0.22371,-0.0691 z m 4.46849,0 c 0.0858,0 0.16085,0.0232 0.22463,0.0691 0.0638,0.0459 0.11637,0.11456 0.15806,0.20648 0.0423,0.0918 0.074,0.20783 0.0952,0.34776 0.0212,0.13996 0.0319,0.30388 0.0319,0.49188 0,0.1874 -0.0107,0.35106 -0.0319,0.49071 -0.0212,0.13964 -0.0529,0.25541 -0.0952,0.34731 -0.0417,0.0919 -0.0943,0.16101 -0.15806,0.20694 -0.0638,0.046 -0.13878,0.0687 -0.22463,0.0687 -0.0852,0 -0.15948,-0.0227 -0.22325,-0.0687 -0.0638,-0.0459 -0.11713,-0.11507 -0.15945,-0.20694 -0.0417,-0.0919 -0.073,-0.20767 -0.0938,-0.34731 -0.0209,-0.13965 -0.0314,-0.30331 -0.0314,-0.49071 0,-0.188 0.0105,-0.35192 0.0314,-0.49188 0.0208,-0.13993 0.0521,-0.25591 0.0938,-0.34776 0.0423,-0.0919 0.0957,-0.16055 0.15945,-0.20648 0.0638,-0.046 0.13801,-0.0691 0.22325,-0.0691 z m 2.23424,0 c 0.0858,0 0.16086,0.0232 0.22463,0.0691 0.0638,0.0459 0.11635,0.11456 0.15806,0.20648 0.0423,0.0918 0.074,0.20783 0.0952,0.34776 0.0212,0.13996 0.0319,0.30388 0.0319,0.49188 0,0.1874 -0.0107,0.35106 -0.0319,0.49071 -0.0212,0.13964 -0.0529,0.25541 -0.0952,0.34731 -0.0417,0.0919 -0.0943,0.16101 -0.15806,0.20694 -0.0638,0.046 -0.13879,0.0687 -0.22463,0.0687 -0.0853,0 -0.15949,-0.0227 -0.22324,-0.0687 -0.0638,-0.0459 -0.11691,-0.11507 -0.15922,-0.20694 -0.0417,-0.0919 -0.0729,-0.20767 -0.0938,-0.34731 -0.0209,-0.13965 -0.0314,-0.30331 -0.0314,-0.49071 0,-0.188 0.0105,-0.35192 0.0314,-0.49188 0.0209,-0.13993 0.0521,-0.25591 0.0938,-0.34776 0.0423,-0.0919 0.0954,-0.16055 0.15922,-0.20648 0.0638,-0.046 0.13799,-0.0691 0.22324,-0.0691 z m 4.46872,0 c 0.0859,0 0.16063,0.0232 0.2244,0.0691 0.0638,0.0459 0.11683,0.11456 0.15853,0.20648 0.0423,0.0918 0.0738,0.20783 0.095,0.34776 0.0212,0.13996 0.0319,0.30388 0.0319,0.49188 0,0.1874 -0.0107,0.35106 -0.0319,0.49071 -0.0212,0.13964 -0.0527,0.25541 -0.095,0.34731 -0.0417,0.0919 -0.0947,0.16101 -0.15853,0.20694 -0.0638,0.046 -0.13855,0.0687 -0.2244,0.0687 -0.0852,0 -0.15946,-0.0227 -0.22323,-0.0687 -0.0638,-0.0459 -0.11714,-0.11507 -0.15946,-0.20694 -0.0417,-0.0919 -0.0729,-0.20767 -0.0938,-0.34731 -0.0209,-0.13965 -0.0312,-0.30331 -0.0312,-0.49071 0,-0.188 0.0103,-0.35192 0.0312,-0.49188 0.0209,-0.13993 0.0521,-0.25591 0.0938,-0.34776 0.0423,-0.0919 0.0957,-0.16055 0.15946,-0.20648 0.0638,-0.046 0.13799,-0.0691 0.22323,-0.0691 z m 4.46896,0 c 0.0858,0 0.16038,0.0232 0.22417,0.0691 0.0638,0.0459 0.11659,0.11456 0.15829,0.20648 0.0423,0.0918 0.0743,0.20783 0.0954,0.34776 0.0212,0.13996 0.0314,0.30388 0.0314,0.49188 0,0.1874 -0.0101,0.35106 -0.0314,0.49071 -0.0211,0.13964 -0.0531,0.25541 -0.0954,0.34731 -0.0417,0.0919 -0.0945,0.16101 -0.15829,0.20694 -0.0638,0.046 -0.13833,0.0687 -0.22417,0.0687 -0.0852,0 -0.15995,-0.0227 -0.22371,-0.0687 -0.0638,-0.0459 -0.1169,-0.11507 -0.15922,-0.20694 -0.0417,-0.0919 -0.073,-0.20767 -0.0938,-0.34731 -0.0209,-0.13965 -0.0312,-0.30331 -0.0312,-0.49071 0,-0.188 0.0102,-0.35192 0.0312,-0.49188 0.0208,-0.13993 0.0521,-0.25591 0.0938,-0.34776 0.0423,-0.0919 0.0954,-0.16055 0.15922,-0.20648 0.0638,-0.046 0.13847,-0.0691 0.22371,-0.0691 z m 2.23424,0 c 0.0858,0 0.16034,0.0232 0.22418,0.0691 0.0638,0.0459 0.1168,0.11456 0.15851,0.20648 0.0423,0.0918 0.0741,0.20783 0.0952,0.34776 0.0212,0.13996 0.0316,0.30388 0.0316,0.49188 0,0.1874 -0.0105,0.35106 -0.0316,0.49071 -0.0212,0.13964 -0.0529,0.25541 -0.0952,0.34731 -0.0417,0.0919 -0.0947,0.16101 -0.15851,0.20694 -0.0638,0.046 -0.13834,0.0687 -0.22418,0.0687 -0.0852,0 -0.15993,-0.0227 -0.22371,-0.0687 -0.0638,-0.0459 -0.11691,-0.11507 -0.15922,-0.20694 -0.0417,-0.0919 -0.073,-0.20767 -0.0938,-0.34731 -0.0208,-0.13965 -0.0312,-0.30331 -0.0312,-0.49071 0,-0.188 0.0102,-0.35192 0.0312,-0.49188 0.0209,-0.13993 0.0521,-0.25591 0.0938,-0.34776 0.0423,-0.0919 0.0954,-0.16055 0.15922,-0.20648 0.0638,-0.046 0.13847,-0.0691 0.22371,-0.0691 z m 4.46872,0 c 0.0859,0 0.16062,0.0232 0.2244,0.0691 0.0638,0.0459 0.11634,0.11456 0.15806,0.20648 0.0423,0.0918 0.0743,0.20783 0.0954,0.34776 0.0212,0.13996 0.0314,0.30388 0.0314,0.49188 0,0.1874 -0.0101,0.35106 -0.0314,0.49071 -0.0212,0.13964 -0.0531,0.25541 -0.0954,0.34731 -0.0417,0.0919 -0.0943,0.16101 -0.15806,0.20694 -0.0638,0.046 -0.13854,0.0687 -0.2244,0.0687 -0.0852,0 -0.15994,-0.0227 -0.2237,-0.0687 -0.0638,-0.0459 -0.11667,-0.11507 -0.15899,-0.20694 -0.0417,-0.0919 -0.073,-0.20767 -0.0938,-0.34731 -0.0209,-0.13965 -0.0312,-0.30331 -0.0312,-0.49071 0,-0.188 0.0102,-0.35192 0.0312,-0.49188 0.0208,-0.13993 0.0521,-0.25591 0.0938,-0.34776 0.0423,-0.0919 0.0952,-0.16055 0.15899,-0.20648 0.0638,-0.046 0.13846,-0.0691 0.2237,-0.0691 z m 2.23424,0 c 0.0858,0 0.16062,0.0232 0.2244,0.0691 0.0638,0.0459 0.11658,0.11456 0.15831,0.20648 0.0423,0.0918 0.074,0.20783 0.0952,0.34776 0.0211,0.13996 0.0319,0.30388 0.0319,0.49188 0,0.1874 -0.0106,0.35106 -0.0319,0.49071 -0.0212,0.13964 -0.0529,0.25541 -0.0952,0.34731 -0.0417,0.0919 -0.0945,0.16101 -0.15831,0.20694 -0.0638,0.046 -0.13856,0.0687 -0.2244,0.0687 -0.0852,0 -0.15991,-0.0227 -0.22369,-0.0687 -0.0638,-0.0459 -0.11669,-0.11507 -0.159,-0.20694 -0.0417,-0.0919 -0.0732,-0.20767 -0.094,-0.34731 -0.0209,-0.13965 -0.031,-0.30331 -0.031,-0.49071 0,-0.188 0.01,-0.35192 0.031,-0.49188 0.0208,-0.13993 0.0523,-0.25591 0.094,-0.34776 0.0423,-0.0919 0.0952,-0.16055 0.159,-0.20648 0.0638,-0.046 0.13844,-0.0691 0.22369,-0.0691 z m -35.75302,0.86129 c -0.0653,0 -0.1214,0.0243 -0.16854,0.0726 -0.046,0.0483 -0.0691,0.10598 -0.0691,0.1725 0,0.0701 0.0226,0.12794 0.0673,0.17389 0.046,0.0459 0.10269,0.0691 0.1704,0.0691 0.0689,0 0.12695,-0.0239 0.17411,-0.071 0.0484,-0.0471 0.0726,-0.10431 0.0726,-0.17201 0,-0.0665 -0.0243,-0.12415 -0.0726,-0.1725 -0.0484,-0.0484 -0.1064,-0.0726 -0.17411,-0.0726 z m 4.46848,0 c -0.0653,0 -0.1214,0.0243 -0.16853,0.0726 -0.046,0.0483 -0.0687,0.10598 -0.0687,0.1725 0,0.0701 0.0221,0.12794 0.0668,0.17389 0.046,0.0459 0.10269,0.0691 0.17039,0.0691 0.0689,0 0.12696,-0.0239 0.17413,-0.071 0.0484,-0.0471 0.0726,-0.10431 0.0726,-0.17201 0,-0.0665 -0.0243,-0.12415 -0.0726,-0.1725 -0.0484,-0.0484 -0.10642,-0.0726 -0.17413,-0.0726 z m 4.46895,0 c -0.0653,0 -0.12161,0.0243 -0.16876,0.0726 -0.046,0.0483 -0.0689,0.10598 -0.0689,0.1725 0,0.0701 0.0223,0.12794 0.067,0.17389 0.0459,0.0459 0.1029,0.0691 0.17062,0.0691 0.0689,0 0.12674,-0.0239 0.17389,-0.071 0.0484,-0.0471 0.0726,-0.10431 0.0726,-0.17201 0,-0.0665 -0.0243,-0.12415 -0.0726,-0.1725 -0.0484,-0.0484 -0.10619,-0.0726 -0.17389,-0.0726 z m 2.23425,0 c -0.0653,0 -0.12162,0.0243 -0.16877,0.0726 -0.046,0.0483 -0.0689,0.10598 -0.0689,0.1725 0,0.0701 0.0223,0.12794 0.067,0.17389 0.046,0.0459 0.10292,0.0691 0.17063,0.0691 0.0689,0 0.12674,-0.0239 0.17389,-0.071 0.0484,-0.0471 0.0726,-0.10431 0.0726,-0.17201 0,-0.0665 -0.0243,-0.12415 -0.0726,-0.1725 -0.0484,-0.0484 -0.1062,-0.0726 -0.17389,-0.0726 z m 4.46873,0 c -0.0653,0 -0.12142,0.0243 -0.16854,0.0726 -0.046,0.0483 -0.0691,0.10598 -0.0691,0.1725 0,0.0701 0.0223,0.12794 0.067,0.17389 0.0459,0.0459 0.10293,0.0691 0.17064,0.0691 0.0689,0 0.12695,-0.0239 0.17411,-0.071 0.0484,-0.0471 0.0724,-0.10431 0.0724,-0.17201 0,-0.0665 -0.024,-0.12415 -0.0724,-0.1725 -0.0484,-0.0484 -0.1064,-0.0726 -0.17411,-0.0726 z m 2.23424,0 c -0.0653,0 -0.12139,0.0243 -0.16854,0.0726 -0.046,0.0483 -0.0691,0.10598 -0.0691,0.1725 0,0.0701 0.0223,0.12794 0.067,0.17389 0.0459,0.0459 0.10292,0.0691 0.17063,0.0691 0.0689,0 0.12695,-0.0239 0.17412,-0.071 0.0483,-0.0471 0.0724,-0.10431 0.0724,-0.17201 0,-0.0665 -0.024,-0.12415 -0.0724,-0.1725 -0.0484,-0.0484 -0.10641,-0.0726 -0.17412,-0.0726 z m 4.46872,0 c -0.0653,0 -0.12139,0.0243 -0.16854,0.0726 -0.046,0.0483 -0.0691,0.10598 -0.0691,0.1725 0,0.0701 0.0225,0.12794 0.0673,0.17389 0.046,0.0459 0.1027,0.0691 0.1704,0.0691 0.0689,0 0.12698,-0.0239 0.17412,-0.071 0.0484,-0.0471 0.0726,-0.10431 0.0726,-0.17201 0,-0.0665 -0.0243,-0.12415 -0.0726,-0.1725 -0.0484,-0.0484 -0.1064,-0.0726 -0.17412,-0.0726 z m 4.46849,0 c -0.0653,0 -0.1214,0.0243 -0.16854,0.0726 -0.046,0.0483 -0.0687,0.10598 -0.0687,0.1725 0,0.0701 0.0223,0.12794 0.067,0.17389 0.0459,0.0459 0.10246,0.0691 0.17016,0.0691 0.0689,0 0.12697,-0.0239 0.17412,-0.071 0.0484,-0.0471 0.0726,-0.10431 0.0726,-0.17201 0,-0.0665 -0.0243,-0.12415 -0.0726,-0.1725 -0.0484,-0.0484 -0.10641,-0.0726 -0.17412,-0.0726 z m 2.23471,0 c -0.0653,0 -0.12163,0.0243 -0.16877,0.0726 -0.046,0.0483 -0.0689,0.10598 -0.0689,0.1725 0,0.0701 0.0223,0.12794 0.067,0.17389 0.046,0.0459 0.10292,0.0691 0.17063,0.0691 0.0689,0 0.12673,-0.0239 0.17389,-0.071 0.0484,-0.0471 0.0726,-0.10431 0.0726,-0.17201 0,-0.0665 -0.0243,-0.12415 -0.0726,-0.1725 -0.0484,-0.0484 -0.10618,-0.0726 -0.17389,-0.0726 z m 4.46849,0 c -0.0653,0 -0.12159,0.0243 -0.16877,0.0726 -0.0459,0.0483 -0.0687,0.10598 -0.0687,0.1725 0,0.0701 0.0221,0.12794 0.0668,0.17389 0.046,0.0459 0.10293,0.0691 0.17064,0.0691 0.0689,0 0.12674,-0.0239 0.17389,-0.071 0.0484,-0.0471 0.0726,-0.10431 0.0726,-0.17201 0,-0.0665 -0.0242,-0.12415 -0.0726,-0.1725 -0.0484,-0.0484 -0.10618,-0.0726 -0.17389,-0.0726 z m 2.23447,0 c -0.0653,0 -0.12183,0.0243 -0.16899,0.0726 -0.0459,0.0483 -0.0687,0.10598 -0.0687,0.1725 0,0.0701 0.0223,0.12794 0.067,0.17389 0.046,0.0459 0.10293,0.0691 0.17062,0.0691 0.0689,0 0.12698,-0.0239 0.17413,-0.071 0.0484,-0.0471 0.0724,-0.10431 0.0724,-0.17201 0,-0.0665 -0.024,-0.12415 -0.0724,-0.1725 -0.0484,-0.0484 -0.10642,-0.0726 -0.17413,-0.0726 z m -40.21477,3.49151 c -0.0519,0 -0.0893,0.0242 -0.13664,0.0319 l 0,0.3003 c 0.0441,-0.0172 0.0844,-0.0421 0.13664,-0.0421 0.0858,0 0.16086,0.0227 0.22464,0.0687 0.0638,0.0459 0.11634,0.11504 0.15806,0.20695 0.0423,0.0919 0.074,0.20781 0.0952,0.34777 0.0212,0.13995 0.0319,0.3039 0.0319,0.49187 0,0.17933 -0.0111,0.33394 -0.0305,0.46952 l 0.32451,0.18739 c 0.005,-0.0185 0.0143,-0.029 0.0184,-0.0482 0.0372,-0.17472 0.0556,-0.37778 0.0556,-0.60873 0,-0.2315 -0.0184,-0.43465 -0.0556,-0.60966 -0.0371,-0.17502 -0.093,-0.32191 -0.16736,-0.44042 -0.0738,-0.11848 -0.1651,-0.20728 -0.27421,-0.26654 -0.10913,-0.0592 -0.23615,-0.0887 -0.38061,-0.0887 z m 4.46873,0 c -0.14449,0 -0.27126,0.0294 -0.38038,0.0887 -0.10911,0.0593 -0.20068,0.14806 -0.27444,0.26654 -0.0737,0.11851 -0.12885,0.2654 -0.16574,0.44042 -0.0369,0.17501 -0.0554,0.37816 -0.0554,0.60966 0,0.23095 0.0185,0.43401 0.0554,0.60873 0.0369,0.1747 0.092,0.32125 0.16574,0.43973 0.0738,0.11848 0.16533,0.20727 0.27444,0.26653 0.10912,0.0593 0.23589,0.0889 0.38038,0.0889 0.14449,0 0.27147,-0.0297 0.38059,-0.0889 0.10913,-0.0593 0.20045,-0.14805 0.27422,-0.26653 0.0744,-0.11848 0.12996,-0.26503 0.16713,-0.43973 0.0372,-0.17472 0.0561,-0.37778 0.0561,-0.60873 0,-0.2315 -0.0189,-0.43465 -0.0561,-0.60966 -0.0372,-0.17502 -0.0928,-0.32191 -0.16713,-0.44042 -0.0738,-0.11848 -0.16509,-0.20728 -0.27422,-0.26654 -0.10912,-0.0592 -0.2361,-0.0887 -0.38059,-0.0887 z m 2.23423,0 c -0.14448,0 -0.27102,0.0294 -0.38012,0.0887 -0.10912,0.0593 -0.20047,0.14806 -0.27422,0.26654 -0.0738,0.11851 -0.12933,0.2654 -0.16621,0.44042 -0.0369,0.17501 -0.0554,0.37816 -0.0554,0.60966 0,0.23095 0.0185,0.43401 0.0554,0.60873 0.0369,0.1747 0.0924,0.32125 0.16621,0.43973 0.0737,0.11848 0.1651,0.20727 0.27422,0.26653 0.1091,0.0593 0.23564,0.0889 0.38012,0.0889 0.14449,0 0.27148,-0.0297 0.38061,-0.0889 0.1091,-0.0593 0.20045,-0.14805 0.27422,-0.26653 0.0744,-0.11848 0.13018,-0.26503 0.16737,-0.43973 0.0372,-0.17472 0.0556,-0.37778 0.0556,-0.60873 0,-0.2315 -0.0184,-0.43465 -0.0556,-0.60966 -0.0372,-0.17502 -0.093,-0.32191 -0.16737,-0.44042 -0.0738,-0.11848 -0.16512,-0.20728 -0.27422,-0.26654 -0.10913,-0.0592 -0.23612,-0.0887 -0.38061,-0.0887 z m 6.7032,0 c -0.14447,0 -0.27125,0.0294 -0.38036,0.0887 -0.10913,0.0593 -0.20046,0.14806 -0.27422,0.26654 -0.0737,0.11851 -0.12908,0.2654 -0.16597,0.44042 -0.0369,0.17501 -0.0554,0.37816 -0.0554,0.60966 0,0.23095 0.0185,0.43401 0.0554,0.60873 0.0369,0.1747 0.0922,0.32125 0.16597,0.43973 0.0738,0.11848 0.16509,0.20727 0.27422,0.26653 0.10911,0.0593 0.23589,0.0889 0.38036,0.0889 0.14449,0 0.27124,-0.0297 0.38037,-0.0889 0.10911,-0.0593 0.20071,-0.14805 0.27446,-0.26653 0.0744,-0.11848 0.13018,-0.26503 0.16737,-0.43973 0.0372,-0.17472 0.0556,-0.37778 0.0556,-0.60873 0,-0.2315 -0.0185,-0.43465 -0.0556,-0.60966 -0.0372,-0.17502 -0.093,-0.32191 -0.16737,-0.44042 -0.0738,-0.11848 -0.16535,-0.20728 -0.27446,-0.26654 -0.10913,-0.0592 -0.23587,-0.0887 -0.38037,-0.0887 z m 4.46873,0 c -0.14447,0 -0.27149,0.0294 -0.3806,0.0887 -0.10913,0.0593 -0.20048,0.14806 -0.27422,0.26654 -0.0738,0.11851 -0.12887,0.2654 -0.16574,0.44042 -0.0369,0.17501 -0.0554,0.37816 -0.0554,0.60966 0,0.23095 0.0185,0.43401 0.0554,0.60873 0.0369,0.1747 0.092,0.32125 0.16574,0.43973 0.0737,0.11848 0.16509,0.20727 0.27422,0.26653 0.10911,0.0593 0.23613,0.0889 0.3806,0.0889 0.14449,0 0.27101,-0.0297 0.38013,-0.0889 0.10911,-0.0593 0.20093,-0.14805 0.27469,-0.26653 0.0743,-0.11848 0.12995,-0.26503 0.16714,-0.43973 0.0372,-0.17472 0.0559,-0.37778 0.0559,-0.60873 0,-0.2315 -0.0187,-0.43465 -0.0559,-0.60966 -0.0372,-0.17502 -0.0928,-0.32191 -0.16714,-0.44042 -0.0738,-0.11848 -0.16558,-0.20728 -0.27469,-0.26654 -0.10912,-0.0592 -0.23564,-0.0887 -0.38013,-0.0887 z m 6.70297,0 c -0.14448,0 -0.27126,0.0294 -0.38037,0.0887 -0.10911,0.0593 -0.20067,0.14806 -0.27445,0.26654 -0.0737,0.11851 -0.12887,0.2654 -0.16575,0.44042 -0.0369,0.17501 -0.0554,0.37816 -0.0554,0.60966 0,0.23095 0.0185,0.43401 0.0554,0.60873 0.0369,0.1747 0.092,0.32125 0.16575,0.43973 0.0738,0.11848 0.16534,0.20727 0.27445,0.26653 0.10911,0.0593 0.23589,0.0889 0.38037,0.0889 0.14448,0 0.27125,-0.0297 0.38036,-0.0889 0.10914,-0.0593 0.20046,-0.14805 0.27422,-0.26653 0.0744,-0.11848 0.13021,-0.26503 0.16737,-0.43973 0.0372,-0.17472 0.0559,-0.37778 0.0559,-0.60873 0,-0.2315 -0.0187,-0.43465 -0.0559,-0.60966 -0.0372,-0.17502 -0.093,-0.32191 -0.16737,-0.44042 -0.0738,-0.11848 -0.16508,-0.20728 -0.27422,-0.26654 -0.10911,-0.0592 -0.23588,-0.0887 -0.38036,-0.0887 z m 6.7032,0 c -0.14449,0 -0.27149,0.0294 -0.38061,0.0887 -0.1091,0.0593 -0.20045,0.14806 -0.27421,0.26654 -0.0737,0.11851 -0.12931,0.2654 -0.16621,0.44042 -0.0369,0.17501 -0.0549,0.37816 -0.0549,0.60966 0,0.23095 0.0181,0.43401 0.0549,0.60873 0.0369,0.1747 0.0925,0.32125 0.16621,0.43973 0.0738,0.11848 0.16511,0.20727 0.27421,0.26653 0.10912,0.0593 0.23612,0.0889 0.38061,0.0889 0.14447,0 0.27102,-0.0297 0.38012,-0.0889 0.10914,-0.0593 0.20048,-0.14805 0.27422,-0.26653 0.0744,-0.11848 0.1302,-0.26503 0.16737,-0.43973 0.0372,-0.17472 0.0556,-0.37778 0.0556,-0.60873 0,-0.2315 -0.0185,-0.43465 -0.0556,-0.60966 -0.0372,-0.17502 -0.093,-0.32191 -0.16737,-0.44042 -0.0737,-0.11848 -0.1651,-0.20728 -0.27422,-0.26654 -0.1091,-0.0592 -0.23565,-0.0887 -0.38012,-0.0887 z m 6.70296,0 c -0.14449,0 -0.27148,0.0294 -0.38059,0.0887 -0.10912,0.0593 -0.20047,0.14806 -0.27422,0.26654 -0.0737,0.11851 -0.12912,0.2654 -0.16598,0.44042 -0.0369,0.17501 -0.0552,0.37816 -0.0552,0.60966 0,0.23095 0.0183,0.43401 0.0552,0.60873 0.0369,0.1747 0.0922,0.32125 0.16598,0.43973 0.0738,0.11848 0.1651,0.20727 0.27422,0.26653 0.10911,0.0593 0.2361,0.0889 0.38059,0.0889 0.14449,0 0.27102,-0.0297 0.38014,-0.0889 0.10911,-0.0593 0.2007,-0.14805 0.27444,-0.26653 0.0744,-0.11848 0.13018,-0.26503 0.16737,-0.43973 0.0372,-0.17472 0.0556,-0.37778 0.0556,-0.60873 0,-0.2315 -0.0185,-0.43465 -0.0556,-0.60966 -0.0372,-0.17502 -0.093,-0.32191 -0.16737,-0.44042 -0.0737,-0.11848 -0.16533,-0.20728 -0.27444,-0.26654 -0.10912,-0.0592 -0.23565,-0.0887 -0.38014,-0.0887 z m 4.46849,0 c -0.14449,0 -0.27103,0.0294 -0.38013,0.0887 -0.10911,0.0593 -0.2007,0.14806 -0.27446,0.26654 -0.0738,0.11851 -0.12907,0.2654 -0.16596,0.44042 -0.0369,0.17501 -0.0554,0.37816 -0.0554,0.60966 0,0.23095 0.0185,0.43401 0.0554,0.60873 0.0133,0.0628 0.0416,0.10254 0.0596,0.15806 l 0.31076,-0.17948 c -0.007,-0.0352 -0.0203,-0.0578 -0.0261,-0.0966 -0.0209,-0.13964 -0.0314,-0.30329 -0.0314,-0.49071 0,-0.18797 0.0105,-0.35192 0.0314,-0.49187 0.0209,-0.13996 0.0521,-0.25591 0.0938,-0.34777 0.0423,-0.0919 0.0954,-0.16101 0.15923,-0.20695 0.0638,-0.046 0.138,-0.0687 0.22323,-0.0687 0.0859,0 0.16085,0.0227 0.22464,0.0687 0.0586,0.0422 0.1053,0.10914 0.14525,0.19018 l 0,-0.46277 c -0.10703,-0.0559 -0.22946,-0.0861 -0.36989,-0.0861 z m -40.27972,0.0489 -0.60918,0.13408 0,0.33357 0.61268,-0.13757 0,2.06944 -0.56916,0 0,0.0775 0,0.2307 0.39969,0 1.09454,0 0,-0.30821 -0.56241,0 0,-2.39952 -0.36616,0 z m 6.70321,0 -0.60943,0.13408 0,0.33357 0.61292,-0.13757 0,2.06944 -0.56962,0 0,0.30821 1.49445,0 0,-0.30821 -0.56217,0 0,-2.39952 -0.36615,0 z m 2.23424,0 -0.60943,0.13408 0,0.33357 0.61315,-0.13757 0,2.06944 -0.56962,0 0,0.30821 1.49423,0 0,-0.30821 -0.56193,0 0,-2.39952 -0.3664,0 z m 4.46872,0 -0.60943,0.13408 0,0.33357 0.61292,-0.13757 0,2.06944 -0.56962,0 0,0.30821 1.49447,0 0,-0.30821 -0.56217,0 0,-2.39952 -0.36617,0 z m 4.46849,0 -0.60943,0.13408 0,0.33357 0.61315,-0.13757 0,2.06944 -0.56938,0 0,0.30821 1.49446,0 0,-0.30821 -0.56217,0 0,-2.39952 -0.36663,0 z m 2.23447,0 -0.60965,0.13408 0,0.33357 0.61314,-0.13757 0,2.06944 -0.56938,0 0,0.30821 1.49447,0 0,-0.30821 -0.56217,0 0,-2.39952 -0.36641,0 z m 4.46849,0 -0.60919,0.13408 0,0.33357 0.61315,-0.13757 0,2.06944 -0.56962,0 0,0.30821 1.49447,0 0,-0.30821 -0.56217,0 0,-2.39952 -0.36664,0 z m 2.23471,0 -0.60965,0.13408 0,0.33357 0.61314,-0.13757 0,2.06944 -0.56962,0 0,0.30821 1.49447,0 0,-0.30821 -0.56217,0 0,-2.39952 -0.36617,0 z m 4.46849,0 -0.60942,0.13408 0,0.33357 0.61315,-0.13757 0,2.06944 -0.56962,0 0,0.30821 1.49446,0 0,-0.30821 -0.56217,0 0,-2.39952 -0.3664,0 z m 2.23449,0 -0.60967,0.13408 0,0.33357 0.61316,-0.13757 0,2.06944 -0.56962,0 0,0.30821 1.49445,0 0,-0.30821 -0.56217,0 0,-2.39952 -0.36615,0 z m 4.46847,0 -0.60941,0.13408 0,0.33357 0.61314,-0.13757 0,2.06944 -0.56938,0 0,0.30821 1.08803,0 0.40596,0 0,-0.23442 0,-0.0738 -0.5617,0 0,-2.39952 -0.36664,0 z m -35.68784,0.24117 c 0.0858,0 0.16063,0.0227 0.2244,0.0687 0.0638,0.0459 0.11681,0.11504 0.15852,0.20695 0.0423,0.0919 0.0738,0.20781 0.095,0.34777 0.0212,0.13995 0.0319,0.3039 0.0319,0.49187 0,0.18742 -0.0107,0.35107 -0.0319,0.49071 -0.0212,0.13964 -0.0526,0.2554 -0.095,0.3473 -0.0417,0.0919 -0.0947,0.16052 -0.15852,0.20648 -0.0638,0.046 -0.13855,0.0691 -0.2244,0.0691 -0.0852,0 -0.1597,-0.0232 -0.22347,-0.0691 -0.0638,-0.046 -0.1169,-0.11461 -0.15923,-0.20648 -0.0417,-0.0919 -0.0729,-0.20766 -0.0938,-0.3473 -0.0209,-0.13964 -0.0312,-0.30329 -0.0312,-0.49071 0,-0.18797 0.0103,-0.35192 0.0312,-0.49187 0.0209,-0.13996 0.0521,-0.25591 0.0938,-0.34777 0.0423,-0.0919 0.0954,-0.16101 0.15923,-0.20695 0.0638,-0.046 0.13823,-0.0687 0.22347,-0.0687 z m 2.23423,0 c 0.0858,0 0.16087,0.0227 0.22464,0.0687 0.0638,0.0459 0.11658,0.11504 0.15829,0.20695 0.0423,0.0919 0.0738,0.20781 0.095,0.34777 0.0211,0.13995 0.0319,0.3039 0.0319,0.49187 0,0.18742 -0.0107,0.35107 -0.0319,0.49071 -0.0212,0.13964 -0.0527,0.2554 -0.095,0.3473 -0.0417,0.0919 -0.0945,0.16052 -0.15829,0.20648 -0.0638,0.046 -0.1388,0.0691 -0.22464,0.0691 -0.0853,0 -0.15944,-0.0232 -0.22323,-0.0691 -0.0638,-0.046 -0.1169,-0.11461 -0.15922,-0.20648 -0.0417,-0.0919 -0.0729,-0.20766 -0.0938,-0.3473 -0.0208,-0.13964 -0.0314,-0.30329 -0.0314,-0.49071 0,-0.18797 0.0106,-0.35192 0.0314,-0.49187 0.0209,-0.13996 0.0521,-0.25591 0.0938,-0.34777 0.0423,-0.0919 0.0954,-0.16101 0.15922,-0.20695 0.0638,-0.046 0.13798,-0.0687 0.22323,-0.0687 z m 6.7032,0 c 0.0858,0 0.16087,0.0227 0.22464,0.0687 0.0638,0.0459 0.11634,0.11504 0.15807,0.20695 0.0423,0.0919 0.0741,0.20781 0.0952,0.34777 0.0212,0.13995 0.0317,0.3039 0.0317,0.49187 0,0.18742 -0.0104,0.35107 -0.0317,0.49071 -0.0211,0.13964 -0.0529,0.2554 -0.0952,0.3473 -0.0417,0.0919 -0.0943,0.16052 -0.15807,0.20648 -0.0638,0.046 -0.13879,0.0691 -0.22464,0.0691 -0.0852,0 -0.1597,-0.0232 -0.22347,-0.0691 -0.0638,-0.046 -0.11667,-0.11461 -0.15899,-0.20648 -0.0417,-0.0919 -0.073,-0.20766 -0.0938,-0.3473 -0.0209,-0.13964 -0.0317,-0.30329 -0.0317,-0.49071 0,-0.18797 0.0107,-0.35192 0.0317,-0.49187 0.0208,-0.13996 0.0521,-0.25591 0.0938,-0.34777 0.0423,-0.0919 0.0952,-0.16101 0.15899,-0.20695 0.0638,-0.046 0.13825,-0.0687 0.22347,-0.0687 z m 4.46873,0 c 0.0858,0 0.16063,0.0227 0.2244,0.0687 0.0638,0.0459 0.11659,0.11504 0.15829,0.20695 0.0423,0.0919 0.074,0.20781 0.0952,0.34777 0.0211,0.13995 0.0319,0.3039 0.0319,0.49187 0,0.18742 -0.0107,0.35107 -0.0319,0.49071 -0.0212,0.13964 -0.0529,0.2554 -0.0952,0.3473 -0.0417,0.0919 -0.0945,0.16052 -0.15829,0.20648 -0.0638,0.046 -0.13856,0.0691 -0.2244,0.0691 -0.0852,0 -0.15993,-0.0232 -0.22371,-0.0691 -0.0638,-0.046 -0.11669,-0.11461 -0.15899,-0.20648 -0.0417,-0.0919 -0.073,-0.20766 -0.0938,-0.3473 -0.0209,-0.13964 -0.0312,-0.30329 -0.0312,-0.49071 0,-0.18797 0.0103,-0.35192 0.0312,-0.49187 0.0208,-0.13996 0.0521,-0.25591 0.0938,-0.34777 0.0423,-0.0919 0.0952,-0.16101 0.15899,-0.20695 0.0638,-0.046 0.13847,-0.0687 0.22371,-0.0687 z m 6.70297,0 c 0.0858,0 0.16061,0.0227 0.2244,0.0687 0.0638,0.0459 0.11637,0.11504 0.15806,0.20695 0.0423,0.0919 0.0743,0.20781 0.0954,0.34777 0.0211,0.13995 0.0317,0.3039 0.0317,0.49187 0,0.18742 -0.0104,0.35107 -0.0317,0.49071 -0.0212,0.13964 -0.0531,0.2554 -0.0954,0.3473 -0.0417,0.0919 -0.0943,0.16052 -0.15806,0.20648 -0.0638,0.046 -0.13857,0.0691 -0.2244,0.0691 -0.0853,0 -0.15971,-0.0232 -0.22348,-0.0691 -0.0638,-0.046 -0.11692,-0.11461 -0.15921,-0.20648 -0.0417,-0.0919 -0.073,-0.20766 -0.0938,-0.3473 -0.0208,-0.13964 -0.0312,-0.30329 -0.0312,-0.49071 0,-0.18797 0.0102,-0.35192 0.0312,-0.49187 0.0208,-0.13996 0.0521,-0.25591 0.0938,-0.34777 0.0423,-0.0919 0.0954,-0.16101 0.15921,-0.20695 0.0638,-0.046 0.13822,-0.0687 0.22348,-0.0687 z m 6.7032,0 c 0.0858,0 0.16038,0.0227 0.22417,0.0687 0.0638,0.0459 0.11659,0.11504 0.15829,0.20695 0.0423,0.0919 0.0743,0.20781 0.0954,0.34777 0.0212,0.13995 0.0314,0.3039 0.0314,0.49187 0,0.18742 -0.0101,0.35107 -0.0314,0.49071 -0.0211,0.13964 -0.0531,0.2554 -0.0954,0.3473 -0.0417,0.0919 -0.0945,0.16052 -0.15829,0.20648 -0.0638,0.046 -0.13834,0.0691 -0.22417,0.0691 -0.0853,0 -0.15995,-0.0232 -0.22371,-0.0691 -0.0638,-0.046 -0.1169,-0.11461 -0.15922,-0.20648 -0.0417,-0.0919 -0.073,-0.20766 -0.0938,-0.3473 -0.0209,-0.13964 -0.0312,-0.30329 -0.0312,-0.49071 0,-0.18797 0.0102,-0.35192 0.0312,-0.49187 0.0208,-0.13996 0.0521,-0.25591 0.0938,-0.34777 0.0423,-0.0919 0.0954,-0.16101 0.15922,-0.20695 0.0638,-0.046 0.13845,-0.0687 0.22371,-0.0687 z m 6.70296,0 c 0.0859,0 0.16062,0.0227 0.2244,0.0687 0.0638,0.0459 0.11634,0.11504 0.15806,0.20695 0.0423,0.0919 0.0743,0.20781 0.0954,0.34777 0.0212,0.13995 0.0314,0.3039 0.0314,0.49187 0,0.18742 -0.0101,0.35107 -0.0314,0.49071 -0.0212,0.13964 -0.0531,0.2554 -0.0954,0.3473 -0.0417,0.0919 -0.0943,0.16052 -0.15806,0.20648 -0.0638,0.046 -0.13854,0.0691 -0.2244,0.0691 -0.0852,0 -0.15994,-0.0232 -0.2237,-0.0691 -0.0638,-0.046 -0.11667,-0.11461 -0.15899,-0.20648 -0.0417,-0.0919 -0.073,-0.20766 -0.0938,-0.3473 -0.0209,-0.13964 -0.0312,-0.30329 -0.0312,-0.49071 0,-0.18797 0.0102,-0.35192 0.0312,-0.49187 0.0208,-0.13996 0.0521,-0.25591 0.0938,-0.34777 0.0423,-0.0919 0.0952,-0.16101 0.15899,-0.20695 0.0638,-0.046 0.13846,-0.0687 0.2237,-0.0687 z m -37.98751,0.86128 c -0.0516,0 -0.0929,0.0271 -0.13315,0.0573 -0.0107,0.008 -0.0255,0.005 -0.0354,0.0154 -0.046,0.0483 -0.0691,0.10601 -0.0691,0.17249 0,0.0701 0.0223,0.12795 0.067,0.17388 0.046,0.0459 0.10292,0.0691 0.17063,0.0691 0.0175,0 0.0281,-0.0149 0.0442,-0.0179 0.0473,-0.009 0.0947,-0.0179 0.1299,-0.0531 0.0483,-0.0471 0.0724,-0.10431 0.0724,-0.17202 0,-0.0665 -0.0241,-0.12414 -0.0724,-0.17249 -0.0484,-0.0484 -0.10642,-0.0726 -0.17413,-0.0726 z m 4.46873,0 c -0.0653,0 -0.1214,0.0243 -0.16854,0.0726 -0.0459,0.0483 -0.0691,0.10601 -0.0691,0.17249 0,0.0701 0.0226,0.12795 0.0673,0.17388 0.046,0.0459 0.10269,0.0691 0.1704,0.0691 0.0689,0 0.12695,-0.0238 0.17411,-0.071 0.0484,-0.0471 0.0726,-0.10431 0.0726,-0.17202 0,-0.0665 -0.0243,-0.12414 -0.0726,-0.17249 -0.0484,-0.0484 -0.10639,-0.0726 -0.17411,-0.0726 z m 2.23424,0 c -0.0653,0 -0.12137,0.0243 -0.16854,0.0726 -0.0459,0.0483 -0.0691,0.10601 -0.0691,0.17249 0,0.0701 0.0226,0.12795 0.0673,0.17388 0.046,0.0459 0.10267,0.0691 0.17039,0.0691 0.0689,0 0.12697,-0.0238 0.17412,-0.071 0.0484,-0.0471 0.0726,-0.10431 0.0726,-0.17202 0,-0.0665 -0.0243,-0.12414 -0.0726,-0.17249 -0.0484,-0.0484 -0.10643,-0.0726 -0.17412,-0.0726 z m 6.70319,0 c -0.0653,0 -0.12161,0.0243 -0.16876,0.0726 -0.046,0.0483 -0.0689,0.10601 -0.0689,0.17249 0,0.0701 0.0223,0.12795 0.067,0.17388 0.0459,0.0459 0.1029,0.0691 0.17062,0.0691 0.0689,0 0.12674,-0.0238 0.17389,-0.071 0.0484,-0.0471 0.0726,-0.10431 0.0726,-0.17202 0,-0.0665 -0.0243,-0.12414 -0.0726,-0.17249 -0.0484,-0.0484 -0.10619,-0.0726 -0.17389,-0.0726 z m 4.46849,0 c -0.0653,0 -0.12163,0.0243 -0.16876,0.0726 -0.046,0.0483 -0.0687,0.10601 -0.0687,0.17249 0,0.0701 0.0223,0.12795 0.067,0.17388 0.046,0.0459 0.10268,0.0691 0.1704,0.0691 0.0689,0 0.12718,-0.0238 0.17436,-0.071 0.0483,-0.0471 0.0724,-0.10431 0.0724,-0.17202 0,-0.0665 -0.024,-0.12414 -0.0724,-0.17249 -0.0484,-0.0484 -0.10666,-0.0726 -0.17436,-0.0726 z m 6.70298,0 c -0.0653,0 -0.12142,0.0243 -0.16854,0.0726 -0.046,0.0483 -0.0689,0.10601 -0.0689,0.17249 0,0.0701 0.0225,0.12795 0.0673,0.17388 0.0459,0.0459 0.10246,0.0691 0.17017,0.0691 0.0689,0 0.1272,-0.0238 0.17434,-0.071 0.0484,-0.0471 0.0726,-0.10431 0.0726,-0.17202 0,-0.0665 -0.0242,-0.12414 -0.0726,-0.17249 -0.0483,-0.0484 -0.10662,-0.0726 -0.17434,-0.0726 z m 6.70296,0 c -0.0653,0 -0.1214,0.0243 -0.16854,0.0726 -0.046,0.0483 -0.0687,0.10601 -0.0687,0.17249 0,0.0701 0.0223,0.12795 0.067,0.17388 0.0459,0.0459 0.10246,0.0691 0.17016,0.0691 0.0689,0 0.12697,-0.0238 0.17412,-0.071 0.0484,-0.0471 0.0726,-0.10431 0.0726,-0.17202 0,-0.0665 -0.0243,-0.12414 -0.0726,-0.17249 -0.0484,-0.0484 -0.10641,-0.0726 -0.17412,-0.0726 z m 6.7032,0 c -0.0653,0 -0.12159,0.0243 -0.16877,0.0726 -0.0459,0.0483 -0.0687,0.10601 -0.0687,0.17249 0,0.0701 0.0221,0.12795 0.0668,0.17388 0.046,0.0459 0.10293,0.0691 0.17064,0.0691 0.0689,0 0.12674,-0.0238 0.17389,-0.071 0.0484,-0.0471 0.0726,-0.10431 0.0726,-0.17202 0,-0.0665 -0.0242,-0.12414 -0.0726,-0.17249 -0.0484,-0.0484 -0.10618,-0.0726 -0.17389,-0.0726 z m 4.46872,0 c -0.0653,0 -0.12138,0.0243 -0.16853,0.0726 -0.0459,0.0483 -0.0691,0.10601 -0.0691,0.17249 0,0.0701 0.0223,0.12795 0.067,0.17388 0.046,0.0459 0.10292,0.0691 0.17063,0.0691 0.0689,0 0.12699,-0.0238 0.17413,-0.071 0.0484,-0.0471 0.0724,-0.10431 0.0724,-0.17202 0,-0.0665 -0.024,-0.12414 -0.0724,-0.17249 -0.0484,-0.0484 -0.10641,-0.0726 -0.17413,-0.0726 z m -33.51135,3.4915 c -0.14448,0 -0.27147,0.0294 -0.38059,0.0887 -0.10911,0.0593 -0.20045,0.14805 -0.27422,0.26653 -0.0738,0.11851 -0.12931,0.26519 -0.1662,0.4402 -0.0369,0.17501 -0.055,0.37836 -0.055,0.60989 0,0.0818 0.015,0.14078 0.0196,0.21555 l 0.37595,0.21719 c -0.0162,-0.12813 -0.0275,-0.26748 -0.0275,-0.43274 0,-0.18799 0.0102,-0.35193 0.0312,-0.49187 0.0208,-0.13996 0.0521,-0.25591 0.0938,-0.34779 0.0423,-0.0919 0.0954,-0.16076 0.15922,-0.2067 0.0638,-0.0459 0.13844,-0.0689 0.22369,-0.0689 0.0858,0 0.16041,0.023 0.22418,0.0689 0.0638,0.0459 0.11658,0.11478 0.15829,0.2067 0.0423,0.0919 0.0743,0.20783 0.0954,0.34779 0.0212,0.13994 0.0314,0.30388 0.0314,0.49187 0,0.18741 -0.0101,0.35106 -0.0314,0.49069 -0.0212,0.13967 -0.0531,0.25523 -0.0954,0.34709 -0.013,0.0287 -0.0342,0.0403 -0.0494,0.0645 l 0.29587,0.17087 c 0.007,-0.0105 0.0185,-0.0137 0.0254,-0.0247 0.0744,-0.11848 0.13019,-0.26547 0.16737,-0.44018 0.0372,-0.1747 0.0559,-0.37733 0.0559,-0.60826 0,-0.23153 -0.0187,-0.43488 -0.0559,-0.60989 -0.0372,-0.17501 -0.093,-0.32169 -0.16737,-0.4402 -0.0738,-0.11848 -0.16508,-0.20727 -0.27422,-0.26653 -0.10911,-0.0592 -0.23566,-0.0887 -0.38014,-0.0887 z m 4.46849,0 c -0.14447,0 -0.27125,0.0294 -0.38036,0.0887 -0.10913,0.0593 -0.20046,0.14805 -0.27422,0.26653 -0.0737,0.11851 -0.12908,0.26519 -0.16597,0.4402 -0.0369,0.17501 -0.0554,0.37836 -0.0554,0.60989 0,0.23093 0.0185,0.43356 0.0554,0.60826 0.0369,0.17471 0.0922,0.3217 0.16597,0.44018 0.0738,0.1185 0.16509,0.20706 0.27422,0.26631 0.10911,0.0592 0.23589,0.0892 0.38036,0.0892 0.1445,0 0.27124,-0.0299 0.38037,-0.0892 0.10911,-0.0592 0.20071,-0.14781 0.27446,-0.26631 0.0744,-0.11848 0.13018,-0.26547 0.16737,-0.44018 0.0372,-0.1747 0.0556,-0.37733 0.0556,-0.60826 0,-0.23153 -0.0185,-0.43488 -0.0556,-0.60989 -0.0372,-0.17501 -0.093,-0.32169 -0.16737,-0.4402 -0.0738,-0.11848 -0.16535,-0.20727 -0.27446,-0.26653 -0.10913,-0.0592 -0.23587,-0.0887 -0.38037,-0.0887 z m 8.93722,0 c -0.14448,0 -0.27102,0.0294 -0.38014,0.0887 -0.1091,0.0593 -0.20069,0.14805 -0.27444,0.26653 -0.0737,0.11851 -0.1291,0.26519 -0.16598,0.4402 -0.0369,0.17501 -0.0554,0.37836 -0.0554,0.60989 0,0.23093 0.0185,0.43356 0.0554,0.60826 0.0369,0.17471 0.0922,0.3217 0.16598,0.44018 0.0738,0.1185 0.16534,0.20706 0.27444,0.26631 0.10912,0.0592 0.23566,0.0892 0.38014,0.0892 0.14448,0 0.27149,-0.0299 0.3806,-0.0892 0.10912,-0.0592 0.20046,-0.14781 0.27422,-0.26631 0.0743,-0.11848 0.13017,-0.26547 0.16737,-0.44018 0.0372,-0.1747 0.0556,-0.37733 0.0556,-0.60826 0,-0.23153 -0.0185,-0.43488 -0.0556,-0.60989 -0.0372,-0.17501 -0.093,-0.32169 -0.16737,-0.4402 -0.0738,-0.11848 -0.1651,-0.20727 -0.27422,-0.26653 -0.10911,-0.0592 -0.23612,-0.0887 -0.3806,-0.0887 z m 2.23448,0 c -0.14448,0 -0.27124,0.0294 -0.38037,0.0887 -0.10911,0.0593 -0.20067,0.14805 -0.27445,0.26653 -0.0737,0.11851 -0.12887,0.26519 -0.16575,0.4402 -0.0369,0.17501 -0.0554,0.37836 -0.0554,0.60989 0,0.23093 0.0185,0.43356 0.0554,0.60826 0.0369,0.17471 0.092,0.3217 0.16575,0.44018 0.0738,0.1185 0.16534,0.20706 0.27445,0.26631 0.10911,0.0592 0.23589,0.0892 0.38037,0.0892 0.14448,0 0.27124,-0.0299 0.38036,-0.0892 0.10913,-0.0592 0.20046,-0.14781 0.27422,-0.26631 0.0744,-0.11848 0.13021,-0.26547 0.16737,-0.44018 0.0372,-0.1747 0.0559,-0.37733 0.0559,-0.60826 0,-0.23153 -0.0187,-0.43488 -0.0559,-0.60989 -0.0372,-0.17501 -0.093,-0.32169 -0.16737,-0.4402 -0.0738,-0.11848 -0.16509,-0.20727 -0.27422,-0.26653 -0.10912,-0.0592 -0.23588,-0.0887 -0.38036,-0.0887 z m 4.46849,0 c -0.14448,0 -0.27103,0.0294 -0.38014,0.0887 -0.10913,0.0593 -0.20048,0.14805 -0.27421,0.26653 -0.0737,0.11851 -0.12935,0.26519 -0.16622,0.4402 -0.0369,0.17501 -0.0554,0.37836 -0.0554,0.60989 0,0.23093 0.0185,0.43356 0.0554,0.60826 0.0369,0.17471 0.0925,0.3217 0.16622,0.44018 0.0737,0.1185 0.16508,0.20706 0.27421,0.26631 0.10911,0.0592 0.23566,0.0892 0.38014,0.0892 0.14448,0 0.27149,-0.0299 0.3806,-0.0892 0.10914,-0.0592 0.20047,-0.14781 0.27421,-0.26631 0.0743,-0.11848 0.13018,-0.26547 0.16737,-0.44018 0.0372,-0.1747 0.0556,-0.37733 0.0556,-0.60826 0,-0.23153 -0.0184,-0.43488 -0.0556,-0.60989 -0.0372,-0.17501 -0.093,-0.32169 -0.16737,-0.4402 -0.0737,-0.11848 -0.16507,-0.20727 -0.27421,-0.26653 -0.10911,-0.0592 -0.23612,-0.0887 -0.3806,-0.0887 z m 2.23471,0 c -0.14449,0 -0.27149,0.0294 -0.38061,0.0887 -0.1091,0.0593 -0.20045,0.14805 -0.27421,0.26653 -0.0737,0.11851 -0.12931,0.26519 -0.16621,0.4402 -0.0369,0.17501 -0.0549,0.37836 -0.0549,0.60989 0,0.23093 0.0181,0.43356 0.0549,0.60826 0.0369,0.17471 0.0925,0.3217 0.16621,0.44018 0.0738,0.1185 0.16511,0.20706 0.27421,0.26631 0.10912,0.0592 0.23612,0.0892 0.38061,0.0892 0.14447,0 0.27102,-0.0299 0.38012,-0.0892 0.10915,-0.0592 0.20048,-0.14781 0.27422,-0.26631 0.0744,-0.11848 0.1302,-0.26547 0.16737,-0.44018 0.0372,-0.1747 0.0556,-0.37733 0.0556,-0.60826 0,-0.23153 -0.0185,-0.43488 -0.0556,-0.60989 -0.0372,-0.17501 -0.093,-0.32169 -0.16737,-0.4402 -0.0737,-0.11848 -0.16507,-0.20727 -0.27422,-0.26653 -0.1091,-0.0592 -0.23565,-0.0887 -0.38012,-0.0887 z m 4.46849,0 c -0.1445,0 -0.27126,0.0294 -0.38037,0.0887 -0.10912,0.0593 -0.20047,0.14805 -0.27422,0.26653 -0.0738,0.11851 -0.1291,0.26519 -0.16597,0.4402 -0.0369,0.17501 -0.0554,0.37836 -0.0554,0.60989 0,0.0217 0.005,0.036 0.005,0.0573 l 0.37316,-0.21532 c 0.005,-0.1171 0.007,-0.23884 0.0214,-0.33381 0.0208,-0.13996 0.0521,-0.25591 0.0938,-0.34779 0.0423,-0.0919 0.0952,-0.16076 0.15899,-0.2067 0.0638,-0.0459 0.13822,-0.0689 0.22347,-0.0689 0.0858,0 0.16085,0.023 0.22464,0.0689 0.0638,0.0459 0.11633,0.11478 0.15805,0.2067 0.0182,0.0396 0.0267,0.10124 0.041,0.14969 l 0.30168,-0.17436 c -0.0248,-0.06 -0.0392,-0.13576 -0.0705,-0.18576 -0.0738,-0.11848 -0.16532,-0.20727 -0.27445,-0.26653 -0.10911,-0.0592 -0.2359,-0.0887 -0.38036,-0.0887 z m -29.1078,0.0489 -0.60966,0.13409 0,0.2549 0,0.0787 0.0982,-0.0221 0.51491,-0.11547 0,0.41297 0.36267,0.20926 0,-0.95231 -0.36616,0 z m 4.46849,0 -0.60943,0.13409 0,0.33357 0.61315,-0.13758 0,2.06944 -0.56962,0 0,0.30797 1.49423,0 0,-0.30797 -0.56193,0 0,-2.39952 -0.3664,0 z m 4.46872,0 -0.60943,0.13409 0,0.33357 0.61292,-0.13758 0,2.06944 -0.56962,0 0,0.30797 1.49447,0 0,-0.30797 -0.56217,0 0,-2.39952 -0.36617,0 z m 2.23424,0 -0.60942,0.13409 0,0.33357 0.61292,-0.13758 0,2.06944 -0.56916,0 0,0.30797 1.494,0 0,-0.30797 -0.56217,0 0,-2.39952 -0.36617,0 z m 2.23425,0 -0.60943,0.13409 0,0.33357 0.61315,-0.13758 0,2.06944 -0.56938,0 0,0.30797 1.49446,0 0,-0.30797 -0.56217,0 0,-2.39952 -0.36663,0 z m 6.70296,0 -0.60919,0.13409 0,0.33357 0.61315,-0.13758 0,2.06944 -0.56962,0 0,0.30797 1.49447,0 0,-0.30797 -0.56217,0 0,-2.39952 -0.36664,0 z m 6.7032,0 -0.60942,0.13409 0,0.33357 0.61315,-0.13758 0,1.90417 0.36267,-0.20928 0,-2.02497 -0.3664,0 z m -20.04745,0.24116 c 0.0858,0 0.16084,0.023 0.22464,0.0689 0.0638,0.0459 0.11635,0.11478 0.15807,0.2067 0.0423,0.0919 0.0741,0.20783 0.0952,0.34779 0.0212,0.13994 0.0317,0.30388 0.0317,0.49187 0,0.18741 -0.0105,0.35106 -0.0317,0.49069 -0.0211,0.13967 -0.0529,0.25523 -0.0952,0.34709 -0.0417,0.0919 -0.0943,0.16074 -0.15807,0.20671 -0.0638,0.0459 -0.13879,0.0691 -0.22464,0.0691 -0.0852,0 -0.1597,-0.0232 -0.22347,-0.0691 -0.0638,-0.046 -0.11669,-0.1148 -0.15899,-0.20671 -0.0417,-0.0919 -0.073,-0.20742 -0.0938,-0.34709 -0.0209,-0.13963 -0.0317,-0.30328 -0.0317,-0.49069 0,-0.18799 0.0107,-0.35193 0.0317,-0.49187 0.0208,-0.13996 0.0521,-0.25591 0.0938,-0.34779 0.0423,-0.0919 0.0952,-0.16076 0.15899,-0.2067 0.0638,-0.0459 0.13825,-0.0689 0.22347,-0.0689 z m 8.93722,0 c 0.0858,0 0.16086,0.023 0.22463,0.0689 0.0638,0.0459 0.11635,0.11478 0.15806,0.2067 0.0423,0.0919 0.074,0.20783 0.0952,0.34779 0.0212,0.13994 0.0319,0.30388 0.0319,0.49187 0,0.18741 -0.0107,0.35106 -0.0319,0.49069 -0.0212,0.13967 -0.0529,0.25523 -0.0952,0.34709 -0.0417,0.0919 -0.0943,0.16074 -0.15806,0.20671 -0.0638,0.0459 -0.13879,0.0691 -0.22463,0.0691 -0.0853,0 -0.15949,-0.0232 -0.22324,-0.0691 -0.0638,-0.046 -0.11691,-0.1148 -0.15922,-0.20671 -0.0417,-0.0919 -0.0729,-0.20742 -0.0938,-0.34709 -0.0209,-0.13963 -0.0314,-0.30328 -0.0314,-0.49069 0,-0.18799 0.0105,-0.35193 0.0314,-0.49187 0.0209,-0.13996 0.0521,-0.25591 0.0938,-0.34779 0.0423,-0.0919 0.0954,-0.16076 0.15922,-0.2067 0.0638,-0.0459 0.13799,-0.0689 0.22324,-0.0689 z m 2.23448,0 c 0.0858,0 0.16061,0.023 0.2244,0.0689 0.0638,0.0459 0.11637,0.11478 0.15806,0.2067 0.0423,0.0919 0.0743,0.20783 0.0954,0.34779 0.0211,0.13994 0.0317,0.30388 0.0317,0.49187 0,0.18741 -0.0104,0.35106 -0.0317,0.49069 -0.0212,0.13967 -0.0531,0.25523 -0.0954,0.34709 -0.0417,0.0919 -0.0943,0.16074 -0.15806,0.20671 -0.0638,0.0459 -0.13857,0.0691 -0.2244,0.0691 -0.0853,0 -0.15971,-0.0232 -0.22348,-0.0691 -0.0638,-0.046 -0.11692,-0.1148 -0.15921,-0.20671 -0.0417,-0.0919 -0.073,-0.20742 -0.0938,-0.34709 -0.0208,-0.13963 -0.0312,-0.30328 -0.0312,-0.49069 0,-0.18799 0.0102,-0.35193 0.0312,-0.49187 0.0208,-0.13996 0.0521,-0.25591 0.0938,-0.34779 0.0423,-0.0919 0.0954,-0.16076 0.15921,-0.2067 0.0638,-0.0459 0.13822,-0.0689 0.22348,-0.0689 z m 4.46849,0 c 0.0858,0 0.16086,0.023 0.22464,0.0689 0.0638,0.0459 0.11656,0.11478 0.15828,0.2067 0.0423,0.0919 0.0738,0.20783 0.095,0.34779 0.0212,0.13994 0.0319,0.30388 0.0319,0.49187 0,0.18741 -0.0107,0.35106 -0.0319,0.49069 -0.0212,0.13967 -0.0527,0.25523 -0.095,0.34709 -0.0417,0.0919 -0.0945,0.16074 -0.15828,0.20671 -0.0638,0.0459 -0.13881,0.0691 -0.22464,0.0691 -0.0853,0 -0.15948,-0.0232 -0.22324,-0.0691 -0.0638,-0.046 -0.1169,-0.1148 -0.15923,-0.20671 -0.0417,-0.0919 -0.0729,-0.20742 -0.0938,-0.34709 -0.0208,-0.13963 -0.0314,-0.30328 -0.0314,-0.49069 0,-0.18799 0.0105,-0.35193 0.0314,-0.49187 0.0209,-0.13996 0.0521,-0.25591 0.0938,-0.34779 0.0423,-0.0919 0.0954,-0.16076 0.15923,-0.2067 0.0638,-0.0459 0.13798,-0.0689 0.22324,-0.0689 z m 2.23471,0 c 0.0858,0 0.16038,0.023 0.22417,0.0689 0.0638,0.0459 0.11659,0.11478 0.15829,0.2067 0.0423,0.0919 0.0743,0.20783 0.0954,0.34779 0.0212,0.13994 0.0314,0.30388 0.0314,0.49187 0,0.18741 -0.0101,0.35106 -0.0314,0.49069 -0.0211,0.13967 -0.0531,0.25523 -0.0954,0.34709 -0.0417,0.0919 -0.0945,0.16074 -0.15829,0.20671 -0.0638,0.0459 -0.13833,0.0691 -0.22417,0.0691 -0.0852,0 -0.15995,-0.0232 -0.22371,-0.0691 -0.0638,-0.046 -0.1169,-0.1148 -0.15922,-0.20671 -0.0417,-0.0919 -0.073,-0.20742 -0.0938,-0.34709 -0.0209,-0.13963 -0.0312,-0.30328 -0.0312,-0.49069 0,-0.18799 0.0102,-0.35193 0.0312,-0.49187 0.0208,-0.13996 0.0521,-0.25591 0.0938,-0.34779 0.0423,-0.0919 0.0954,-0.16076 0.15922,-0.2067 0.0638,-0.0459 0.13847,-0.0689 0.22371,-0.0689 z m -22.34734,0.8613 c -0.0653,0 -0.1214,0.0242 -0.16853,0.0726 -0.046,0.0483 -0.0687,0.10599 -0.0687,0.17248 0,0.0701 0.0221,0.12796 0.0668,0.17389 0.046,0.046 0.10269,0.0689 0.17039,0.0689 0.0689,0 0.12696,-0.0236 0.17413,-0.0708 0.0484,-0.0471 0.0726,-0.10433 0.0726,-0.17204 0,-0.0665 -0.0243,-0.12414 -0.0726,-0.17248 -0.0484,-0.0484 -0.10642,-0.0726 -0.17413,-0.0726 z m 4.46895,0 c -0.0653,0 -0.12159,0.0242 -0.16876,0.0726 -0.046,0.0483 -0.0689,0.10599 -0.0689,0.17248 0,0.0701 0.0223,0.12796 0.067,0.17389 0.0459,0.046 0.1029,0.0689 0.17062,0.0689 0.0689,0 0.12674,-0.0236 0.17389,-0.0708 0.0484,-0.0471 0.0726,-0.10433 0.0726,-0.17204 0,-0.0665 -0.0243,-0.12414 -0.0726,-0.17248 -0.0484,-0.0484 -0.10619,-0.0726 -0.17389,-0.0726 z m 8.93722,0 c -0.0653,0 -0.12139,0.0242 -0.16854,0.0726 -0.046,0.0483 -0.0691,0.10599 -0.0691,0.17248 0,0.0701 0.0223,0.12796 0.067,0.17389 0.0459,0.046 0.10292,0.0689 0.17063,0.0689 0.0689,0 0.12695,-0.0236 0.17412,-0.0708 0.0483,-0.0471 0.0724,-0.10433 0.0724,-0.17204 0,-0.0665 -0.024,-0.12414 -0.0724,-0.17248 -0.0484,-0.0484 -0.10641,-0.0726 -0.17412,-0.0726 z m 2.23425,0 c -0.0653,0 -0.12142,0.0242 -0.16854,0.0726 -0.046,0.0483 -0.0689,0.10599 -0.0689,0.17248 0,0.0701 0.0225,0.12796 0.0673,0.17389 0.0459,0.046 0.10246,0.0689 0.17017,0.0689 0.0689,0 0.1272,-0.0236 0.17434,-0.0708 0.0484,-0.0471 0.0726,-0.10433 0.0726,-0.17204 0,-0.0665 -0.0242,-0.12414 -0.0726,-0.17248 -0.0483,-0.0484 -0.10662,-0.0726 -0.17434,-0.0726 z m 4.46871,0 c -0.0653,0 -0.12137,0.0242 -0.16853,0.0726 -0.0459,0.0483 -0.0691,0.10599 -0.0691,0.17248 0,0.0701 0.0225,0.12796 0.0673,0.17389 0.0459,0.046 0.1027,0.0689 0.17039,0.0689 0.0689,0 0.12698,-0.0236 0.17412,-0.0708 0.0484,-0.0471 0.0726,-0.10433 0.0726,-0.17204 0,-0.0665 -0.0242,-0.12414 -0.0726,-0.17248 -0.0483,-0.0484 -0.10641,-0.0726 -0.17412,-0.0726 z m 2.23425,0 c -0.0653,0 -0.1214,0.0242 -0.16854,0.0726 -0.046,0.0483 -0.0687,0.10599 -0.0687,0.17248 0,0.0701 0.0223,0.12796 0.067,0.17389 0.0459,0.046 0.10246,0.0689 0.17016,0.0689 0.0689,0 0.12697,-0.0236 0.17412,-0.0708 0.0484,-0.0471 0.0726,-0.10433 0.0726,-0.17204 0,-0.0665 -0.0243,-0.12414 -0.0726,-0.17248 -0.0484,-0.0484 -0.10641,-0.0726 -0.17412,-0.0726 z m 1.61062,1.29706 0,0.16365 0.28353,-0.16365 -0.28353,0 z m -19.48156,2.19397 c -0.0247,0 -0.0414,0.0136 -0.0652,0.0154 l 0.75654,0.4367 c -0.0145,-0.0286 -0.0203,-0.0704 -0.0365,-0.0964 -0.0738,-0.11849 -0.16535,-0.2073 -0.27446,-0.26653 -0.10913,-0.0593 -0.23587,-0.0892 -0.38037,-0.0892 z m 11.1717,0 c -0.14448,0 -0.27126,0.0299 -0.38037,0.0892 -0.10911,0.0592 -0.20067,0.14804 -0.27445,0.26653 -0.0737,0.11849 -0.12887,0.26516 -0.16575,0.44018 -0.0369,0.175 -0.0554,0.37837 -0.0554,0.60989 0,0.23094 0.0185,0.43359 0.0554,0.60826 0.0369,0.17473 0.092,0.32124 0.16575,0.43973 0.0738,0.11848 0.16534,0.20752 0.27445,0.26677 0.0942,0.0511 0.20769,0.07 0.32822,0.0771 0.0191,10e-4 0.0324,0.0121 0.0521,0.0121 0.14448,0 0.27125,-0.0299 0.38036,-0.0891 0.10914,-0.0593 0.20046,-0.14829 0.27422,-0.26677 0.0139,-0.0222 0.0188,-0.0582 0.0314,-0.0824 0.0548,-0.10482 0.10574,-0.21534 0.13594,-0.35733 0.0372,-0.17469 0.0559,-0.37732 0.0559,-0.60826 0,-0.23152 -0.0187,-0.43489 -0.0559,-0.60989 -0.0372,-0.17502 -0.093,-0.32169 -0.16737,-0.44018 -0.0738,-0.11849 -0.16508,-0.2073 -0.27422,-0.26653 -0.10911,-0.0593 -0.23588,-0.0892 -0.38036,-0.0892 z m 2.23424,0 c -0.14446,0 -0.271,0.0299 -0.38014,0.0892 -0.10912,0.0592 -0.20092,0.14804 -0.27467,0.26653 -0.0737,0.11849 -0.12885,0.26516 -0.16575,0.44018 -0.0369,0.175 -0.0554,0.37837 -0.0554,0.60989 0,0.20831 0.02,0.38614 0.05,0.54867 l 0.34056,-0.19669 c -0.0107,-0.10988 -0.0224,-0.21756 -0.0224,-0.35198 0,-0.188 0.0103,-0.3519 0.0312,-0.49186 0.0209,-0.13996 0.0521,-0.25591 0.0938,-0.34778 0.0423,-0.0919 0.0957,-0.16099 0.15946,-0.20694 0.0638,-0.0459 0.13799,-0.0689 0.22323,-0.0689 0.0859,0 0.16063,0.023 0.2244,0.0689 0.0638,0.046 0.11683,0.11504 0.15853,0.20694 0.0423,0.0919 0.0738,0.20782 0.095,0.34778 0.0119,0.0789 0.0127,0.1831 0.0179,0.27725 l 0.34428,-0.1988 c -0.008,-0.0623 -0.006,-0.1401 -0.0179,-0.19648 -0.0372,-0.17502 -0.093,-0.32169 -0.16737,-0.44018 -0.0737,-0.11849 -0.16509,-0.2073 -0.27421,-0.26653 -0.10914,-0.0593 -0.23611,-0.0892 -0.3806,-0.0892 z m -11.23314,0.0491 -0.60943,0.13432 0,0.33357 0.61292,-0.13757 0,0.92996 0.36268,0.20928 0,-1.46956 -0.36617,0 z m 2.23424,0 -0.60942,0.13432 0,0.33357 0.61292,-0.13757 0,2.06897 -0.26142,0 0.53424,0.30844 0.65202,0 0,-0.30844 -0.56217,0 0,-2.39929 -0.36617,0 z m 2.23425,0 -0.60943,0.13432 0,0.33357 0.61315,-0.13757 0,2.06897 -0.56938,0 0,0.30844 1.49446,0 0,-0.30844 -0.56217,0 0,-2.39929 -0.36663,0 z m 2.23447,0 -0.60965,0.13432 0,0.33357 0.61314,-0.13757 0,2.06897 -0.56938,0 0,0.30844 1.49447,0 0,-0.30844 -0.56217,0 0,-2.39929 -0.36641,0 z m 6.7032,0 -0.60965,0.13432 0,0.33357 0.16388,-0.0368 0.74676,-0.43111 -0.30099,0 z m -4.40726,0.24117 c 0.0858,0 0.16061,0.023 0.2244,0.0689 0.0638,0.046 0.11637,0.11504 0.15806,0.20694 0.0423,0.0919 0.0743,0.20782 0.0954,0.34778 0.0211,0.13996 0.0317,0.30386 0.0317,0.49186 0,0.1874 -0.0104,0.35107 -0.0317,0.49071 -0.0212,0.13965 -0.0531,0.25519 -0.0954,0.34708 -0.0417,0.0919 -0.0943,0.16077 -0.15806,0.20671 -0.0638,0.0459 -0.13857,0.0691 -0.2244,0.0691 -0.0853,0 -0.15971,-0.0232 -0.22348,-0.0691 -0.0638,-0.0459 -0.11692,-0.11482 -0.15921,-0.20671 -0.0417,-0.0919 -0.073,-0.20743 -0.0938,-0.34708 -0.0208,-0.13964 -0.0312,-0.30331 -0.0312,-0.49071 0,-0.188 0.0102,-0.3519 0.0312,-0.49186 0.0208,-0.13996 0.0521,-0.25591 0.0938,-0.34778 0.0423,-0.0919 0.0954,-0.16099 0.15921,-0.20694 0.0638,-0.0459 0.13822,-0.0689 0.22348,-0.0689 z m -0.004,0.86153 c -0.0653,0 -0.12141,0.0243 -0.16854,0.0726 -0.046,0.0484 -0.0689,0.10554 -0.0689,0.17204 0,0.0701 0.0225,0.12842 0.0673,0.17435 0.0459,0.0459 0.10246,0.0689 0.17017,0.0689 0.0689,0 0.12721,-0.0236 0.17434,-0.0708 0.0484,-0.0471 0.0726,-0.10479 0.0726,-0.17249 0,-0.0665 -0.0243,-0.12367 -0.0726,-0.17204 -0.0483,-0.0483 -0.10663,-0.0726 -0.17434,-0.0726 z m 2.23447,0 c -0.0653,0 -0.12139,0.0243 -0.16854,0.0726 -0.046,0.0484 -0.0691,0.10554 -0.0691,0.17204 0,0.0701 0.0225,0.12842 0.0673,0.17435 0.002,0.002 0.005,0.001 0.007,0.003 0.0449,0.0421 0.0984,0.0659 0.16318,0.0659 0.0689,0 0.12698,-0.0236 0.17412,-0.0708 0.0484,-0.0472 0.0726,-0.10478 0.0726,-0.17249 0,-0.0185 -0.0165,-0.0307 -0.0202,-0.0477 -0.01,-0.0444 -0.0174,-0.0894 -0.0524,-0.12431 -0.0484,-0.0483 -0.1064,-0.0726 -0.17412,-0.0726 z"
       style="color:#000000;font-style:normal;font-variant:normal;font-weight:300;font-stretch:normal;font-size:medium;line-height:125%;font-family:Ubuntu;-inkscape-font-specification:'Ubuntu, Light';text-align:start;letter-spacing:0px;word-spacing:0px;writing-mode:lr-tb;text-anchor:start;clip-rule:nonzero;display:inline;overflow:visible;visibility:visible;opacity:1;isolation:auto;mix-blend-mode:normal;color-interpolation:sRGB;color-interpolation-filters:linearRGB;solid-color:#000000;solid-opacity:1;fill:url(#radialGradient4692);fill-opacity:1;fill-rule:nonzero;stroke:none;stroke-width:4;stroke-linecap:butt;stroke-linejoin:miter;stroke-miterlimit:4;stroke-dasharray:none;stroke-dashoffset:0;stroke-opacity:1;color-rendering:auto;image-rendering:auto;shape-rendering:auto;text-rendering:auto;enable-background:accumulate"
       inkscape:connector-curvature="0" />
    <g
       id="g5073"
       transform="matrix(1.2988181,0,0,1.2988181,-129.69782,-53.509284)">
      <path
         id="path4399-9"
         style="font-style:normal;font-variant:normal;font-weight:300;font-stretch:normal;font-size:medium;line-height:125%;font-family:Ubuntu;-inkscape-font-specification:'Ubuntu, Light';text-align:start;letter-spacing:0px;word-spacing:0px;writing-mode:lr-tb;text-anchor:start;fill:#003189;fill-opacity:1;fill-rule:evenodd;stroke:none;stroke-width:1px;stroke-linecap:butt;stroke-linejoin:miter;stroke-opacity:1"
         d="m 456.4968,169.54503 c -0.75048,0 -1.02365,0.74273 -1.52396,0.76199 -0.55805,0 -1.67016,-0.58881 -2.18972,-0.56956 -0.63502,0 -0.832,1.12249 -1.42775,1.52396 -0.94383,0.63606 -2.24682,0.71789 -3.24035,1.33153 -1.00023,0.61778 -1.95111,1.37836 -2.65928,2.31678 -0.76569,1.01465 -1.61918,3.43953 -1.61918,3.43953 l 1.61154,0.72051 c 0,0 0.24565,-2.37805 0.76198,-3.42891 0.43741,-0.8902 1.1274,-1.67011 1.90494,-2.28594 0.44522,-0.35262 1.52396,-0.76197 1.52396,-0.76197 l 2.66694,-1.52395 5.33385,0.38099 -1.14297,-1.90496"
         inkscape:connector-curvature="0"
         sodipodi:nodetypes="cccsssccsscccc" />
      <path
         style="font-style:normal;font-variant:normal;font-weight:300;font-stretch:normal;font-size:medium;line-height:125%;font-family:Ubuntu;-inkscape-font-specification:'Ubuntu, Light';text-align:start;letter-spacing:0px;word-spacing:0px;writing-mode:lr-tb;text-anchor:start;fill:none;fill-opacity:1;fill-rule:evenodd;stroke:#e4011a;stroke-width:0.47673815;stroke-linecap:butt;stroke-linejoin:miter;stroke-miterlimit:4;stroke-dasharray:none;stroke-opacity:1"
         d="m 449.76727,172.73519 2.63957,-1.52396 c 1.00064,-0.38487 5.21393,0.66151 5.48332,0.35363 l -3.8099,-6.59894 c -0.46182,0 -1.53098,4.40595 -2.43539,4.92551 l -2.63958,1.52396"
         id="path3591-2"
         inkscape:connector-curvature="0"
         sodipodi:nodetypes="cccccc" />
    </g>
    <path
       sodipodi:nodetypes="cccscscscccscscscccscscscccccsccc"
       inkscape:connector-curvature="0"
       id="path3589-0"
       d="m 470.8358,178.75204 c -0.30359,-0.13166 -0.60734,-0.26236 -0.9104,-0.39783 -0.45474,-0.20324 -0.90967,-0.40628 -1.3662,-0.59685 -0.45655,-0.19053 -0.91493,-0.36853 -1.37692,-0.52097 -0.462,-0.15243 -0.92748,-0.27959 -1.39855,-0.36849 -0.47106,-0.0889 -0.9476,-0.13967 -1.43138,-0.13967 -0.48376,0 -0.96032,0.0507 -1.43138,0.13967 -0.47104,0.0889 -0.93679,0.21606 -1.39879,0.36849 -0.46199,0.15244 -0.92015,0.33044 -1.37667,0.52097 -0.45656,0.19057 -0.91146,0.39361 -1.3662,0.59685 -0.45472,0.20326 -0.90944,0.40632 -1.36597,0.59686 -0.45655,0.19053 -0.91468,0.36853 -1.37667,0.52096 -0.462,0.15244 -0.92772,0.27933 -1.39879,0.36826 -0.47106,0.0889 -0.94761,0.13967 -1.43138,0.13967 -0.48378,0 -0.96031,-0.0508 -1.43137,-0.13967 -0.47106,-0.0889 -0.93657,-0.21582 -1.39856,-0.36826 -0.46198,-0.15243 -0.92038,-0.33043 -1.37692,-0.52096 -0.45654,-0.19054 -0.91147,-0.3936 -1.36619,-0.59686 -0.45474,-0.20324 -0.90943,-0.40628 -1.36597,-0.59685 -0.45656,-0.19053 -0.91468,-0.36853 -1.37668,-0.52097 -0.46199,-0.15243 -0.92772,-0.27959 -1.39878,-0.36849 -0.47107,-0.0889 -0.94761,-0.13967 -1.43138,-0.13967 -0.48376,0 -0.9601,0.0507 -1.43115,0.13967 -0.47106,0.0889 -0.9368,0.21606 -1.39878,0.36849 -0.46197,0.15244 -0.92014,0.33044 -1.37668,0.52097 -0.45652,0.19057 -0.91148,0.39361 -1.3662,0.59685 -0.45473,0.20326 -0.90943,0.40632 -1.36596,0.59686 -0.45653,0.19053 -0.91491,0.36853 -1.37691,0.52096 -0.46197,0.15244 -0.92749,0.27933 -1.39856,0.36826 -0.47106,0.0889 -0.94782,0.13967 -1.4316,0.13967 -0.48375,0 -0.96008,-0.0508 -1.43115,-0.13967 -0.47109,-0.0889 -0.93659,-0.21582 -1.39856,-0.36826 -0.0699,-0.0231 -0.13859,-0.0547 -0.20834,-0.0789"
       style="color:#000000;font-style:normal;font-variant:normal;font-weight:300;font-stretch:normal;font-size:medium;line-height:125%;font-family:Ubuntu;-inkscape-font-specification:'Ubuntu, Light';text-align:start;letter-spacing:0px;word-spacing:0px;writing-mode:lr-tb;text-anchor:start;clip-rule:nonzero;display:inline;overflow:visible;visibility:visible;opacity:1;isolation:auto;mix-blend-mode:normal;color-interpolation:sRGB;color-interpolation-filters:linearRGB;solid-color:#000000;solid-opacity:1;fill:#ffffff;fill-opacity:0;fill-rule:nonzero;stroke:#003189;stroke-width:0.47673815;stroke-linecap:butt;stroke-linejoin:miter;stroke-miterlimit:4;stroke-dasharray:none;stroke-dashoffset:0;stroke-opacity:1;color-rendering:auto;image-rendering:auto;shape-rendering:auto;text-rendering:auto;enable-background:accumulate" />
    <path
       style="color:#000000;clip-rule:nonzero;display:inline;overflow:visible;visibility:visible;opacity:1;isolation:auto;mix-blend-mode:normal;color-interpolation:sRGB;color-interpolation-filters:linearRGB;solid-color:#000000;solid-opacity:1;fill:none;fill-opacity:1;fill-rule:nonzero;stroke:#e2011c;stroke-width:1.99999988;stroke-linecap:butt;stroke-linejoin:miter;stroke-miterlimit:4;stroke-dasharray:none;stroke-dashoffset:0;stroke-opacity:1;color-rendering:auto;image-rendering:auto;shape-rendering:auto;text-rendering:auto;enable-background:accumulate"
       d="m 427.1604,173.87185 0.005,-12.7745 22.14199,-12.7836 22.13126,12.7651 -0.0107,25.5489 -11.07095,6.3918 1.66775,2.9843"
       id="path4436-1"
       inkscape:connector-curvature="0"
       sodipodi:nodetypes="ccccccc" />
  </g>
</svg>
